<?xml version="1.0" encoding="UTF-8"?>
<svg width="381px" height="33px" viewBox="0 0 381 33" version="1.1" xmlns="http://www.w3.org/2000/svg" xmlns:xlink="http://www.w3.org/1999/xlink">
    <!-- Generator: Sketch 52.4 (67378) - http://www.bohemiancoding.com/sketch -->
    <title>Logo - Black</title>
    <desc>Created with Sketch.</desc>
    <defs>
        <polygon id="path-1" points="0.954 43.583 390.406 43.583 390.406 0.183 0.954 0.183"/>
    </defs>
    <g id="Symbols" stroke="none" stroke-width="1" fill="none" fill-rule="evenodd">
        <g id="Logo/Black" transform="translate(-5.000000, -10.000000)">
            <g id="Logo---Black">
                <path d="M13.167,24.146 L10.179,24.146 L5.498,10.7 L8.327,10.7 L10.936,18.568 C11.195,19.325 11.494,20.222 11.733,21.198 L11.773,21.198 C11.972,20.281 12.191,19.545 12.569,18.409 L15.219,10.7 L17.868,10.7 L13.167,24.146 Z" id="Fill-231" fill="#FFFFFF"/>
                <path d="M25.7768,12.8118 C23.9248,12.8118 22.2108,14.2858 22.2108,17.3138 C22.2108,20.1618 23.3268,22.0148 25.7368,22.0148 C27.4898,22.0148 29.3628,20.6598 29.3628,17.4328 C29.3628,14.4448 28.0878,12.8118 25.7768,12.8118 M25.5578,24.3648 C21.4548,24.3648 19.4428,21.7558 19.4428,17.5928 C19.4428,13.1508 22.4108,10.4818 26.0158,10.4818 C29.6018,10.4818 32.1308,12.6328 32.1308,17.2338 C32.1308,21.6758 29.2028,24.3648 25.5578,24.3648" id="Fill-233" fill="#FFFFFF"/>
                <polygon id="Fill-235" fill="#FFFFFF" points="35.0202 24.146 35.0202 10.7 37.6092 10.7 37.6092 21.875 41.9722 21.875 41.9722 24.146"/>
                <polygon id="Fill-237" fill="#FFFFFF" points="51.5142 24.146 47.1912 17.692 47.1912 24.146 44.6022 24.146 44.6022 10.7 47.1912 10.7 47.1912 16.796 51.5542 10.7 54.7012 10.7 49.7812 17.194 54.9202 24.146"/>
                <path d="M59.821,24.3649 C58.865,24.3649 57.909,24.2659 57.072,24.0459 L57.232,21.6369 C57.988,21.8949 59.064,22.1139 60.04,22.1139 C61.355,22.1139 62.371,21.5759 62.371,20.3419 C62.371,17.7719 56.733,18.9469 56.733,14.5249 C56.733,12.1349 58.626,10.4819 61.853,10.4819 C62.61,10.4819 63.486,10.5809 64.283,10.7199 L64.143,12.9909 C63.387,12.7719 62.55,12.6329 61.733,12.6329 C60.239,12.6329 59.482,13.3099 59.482,14.2659 C59.482,16.6759 65.139,15.7799 65.139,19.9829 C65.139,22.5129 63.128,24.3649 59.821,24.3649" id="Fill-239" fill="#FFFFFF"/>
                <path d="M81.8326,24.146 L78.6456,24.146 L76.6936,16.736 C76.4546,15.88 76.3156,14.923 76.1756,13.967 L76.1556,13.967 C76.0566,14.903 75.8966,15.78 75.6576,16.676 L73.7056,24.146 L70.6976,24.146 L67.2716,10.7 L70.0406,10.7 L71.8726,18.13 C72.0916,19.007 72.2516,19.923 72.3706,20.859 L72.3906,20.859 C72.5306,19.963 72.6696,19.067 72.9086,18.21 L74.9606,10.7 L77.7096,10.7 L79.7806,18.17 C79.9796,18.907 80.1996,19.844 80.3186,20.78 L80.3386,20.78 C80.4776,19.844 80.6376,19.007 80.8366,18.21 L82.6696,10.7 L85.2586,10.7 L81.8326,24.146 Z" id="Fill-241" fill="#FFFFFF"/>
                <path d="M92.7897,15.8197 C92.5307,15.0827 92.3317,14.4257 92.1727,13.6687 L92.1527,13.6687 C91.9927,14.3657 91.7737,15.1427 91.5147,15.9197 L90.2997,19.3457 L94.0447,19.3457 L92.7897,15.8197 Z M95.6587,24.1457 L94.7217,21.3967 L89.6427,21.3967 L88.7057,24.1457 L86.0967,24.1457 L90.7977,10.7007 L93.7257,10.7007 L98.5267,24.1457 L95.6587,24.1457 Z" id="Fill-243" fill="#FFFFFF"/>
                <path d="M111.0366,13.4891 C109.9606,13.0711 108.7256,12.8121 107.4716,12.8121 C104.8216,12.8121 102.9096,14.4851 102.9096,17.4931 C102.9096,20.3411 104.4636,22.0141 107.1916,22.0141 C107.8296,22.0141 108.3876,21.9351 108.9046,21.7761 L108.9046,17.0941 L111.4946,17.0941 L111.4946,23.5081 C110.1606,24.0461 108.5066,24.3451 106.8936,24.3451 C102.6306,24.3451 100.1006,21.8351 100.1006,17.7321 C100.1006,13.5091 102.9696,10.5011 107.6306,10.5011 C108.9656,10.5011 110.2796,10.7401 111.4346,11.0791 L111.0366,13.4891 Z" id="Fill-245" fill="#FFFFFF"/>
                <polygon id="Fill-247" fill="#FFFFFF" points="115.5587 24.146 115.5587 10.7 122.8697 10.7 122.8697 12.872 118.1487 12.872 118.1487 16.178 122.6307 16.178 122.6307 18.29 118.1487 18.29 118.1487 21.935 122.8697 21.935 122.8697 24.146"/>
                <path d="M134.5035,24.146 L130.5595,17.354 C129.9615,16.338 129.5035,15.342 129.1045,14.465 C129.1845,15.621 129.2245,17.732 129.2245,19.345 L129.2245,24.146 L126.7145,24.146 L126.7145,10.7 L130.0815,10.7 L133.8265,17.114 C134.4435,18.15 134.9815,19.266 135.4785,20.281 C135.3795,18.927 135.3395,16.537 135.3395,14.883 L135.3395,10.7 L137.8495,10.7 L137.8495,24.146 L134.5035,24.146 Z" id="Fill-249" fill="#FFFFFF"/>
                <path d="M150.1607,12.7322 C149.8417,12.7322 149.5437,12.7322 149.2447,12.7522 L149.2447,17.2342 C149.5037,17.2742 149.7627,17.2932 150.0017,17.2932 C151.5947,17.2742 152.6907,16.3972 152.6907,14.9432 C152.6907,13.5882 151.9137,12.7322 150.1607,12.7322 M150.1207,19.4452 C149.8817,19.4452 149.5627,19.4452 149.2447,19.4052 L149.2447,24.1462 L146.6557,24.1462 L146.6557,10.7002 C147.7507,10.6402 148.9457,10.6202 150.2607,10.6202 C153.5667,10.6202 155.3797,12.1542 155.3797,14.7832 C155.3797,17.3932 153.3877,19.4452 150.1207,19.4452" id="Fill-251" fill="#FFFFFF"/>
                <path d="M164.0656,12.8118 C162.2126,12.8118 160.4996,14.2858 160.4996,17.3138 C160.4996,20.1618 161.6156,22.0148 164.0256,22.0148 C165.7786,22.0148 167.6516,20.6598 167.6516,17.4328 C167.6516,14.4448 166.3766,12.8118 164.0656,12.8118 M163.8466,24.3648 C159.7426,24.3648 157.7316,21.7558 157.7316,17.5928 C157.7316,13.1508 160.6996,10.4818 164.3046,10.4818 C167.8896,10.4818 170.4196,12.6328 170.4196,17.2338 C170.4196,21.6758 167.4916,24.3648 163.8466,24.3648" id="Fill-253" fill="#FFFFFF"/>
                <path d="M181.4951,24.146 L177.5511,17.354 C176.9541,16.338 176.4951,15.342 176.0961,14.465 C176.1771,15.621 176.2171,17.732 176.2171,19.345 L176.2171,24.146 L173.7071,24.146 L173.7071,10.7 L177.0731,10.7 L180.8181,17.114 C181.4361,18.15 181.9731,19.266 182.4721,20.281 C182.3721,18.927 182.3321,16.537 182.3321,14.883 L182.3321,10.7 L184.8421,10.7 L184.8421,24.146 L181.4951,24.146 Z" id="Fill-255" fill="#FFFFFF"/>
                <polygon id="Fill-257" fill="#FFFFFF" points="196.2366 12.8915 196.2366 16.3575 200.5786 16.3575 200.5786 18.4885 196.2366 18.4885 196.2366 24.1455 193.6476 24.1455 193.6476 10.7005 200.8376 10.7005 200.8376 12.8915"/>
                <mask id="mask-2" fill="white">
                    <use xlink:href="#path-1"/>
                </mask>
                <g id="Clip-260"/>
                <polygon id="Fill-259" fill="#FFFFFF" mask="url(#mask-2)" points="203.947 24.146 206.535 24.146 206.535 10.7 203.947 10.7"/>
                <path d="M218.3476,24.146 L214.4036,17.354 C213.8066,16.338 213.3476,15.342 212.9486,14.465 C213.0296,15.621 213.0696,17.732 213.0696,19.345 L213.0696,24.146 L210.5596,24.146 L210.5596,10.7 L213.9256,10.7 L217.6706,17.114 C218.2876,18.15 218.8246,19.266 219.3236,20.281 C219.2236,18.927 219.1836,16.537 219.1836,14.883 L219.1836,10.7 L221.6946,10.7 L221.6946,24.146 L218.3476,24.146 Z" id="Fill-261" fill="#FFFFFF" mask="url(#mask-2)"/>
                <path d="M230.838,15.8197 C230.579,15.0827 230.38,14.4257 230.22,13.6687 L230.201,13.6687 C230.042,14.3657 229.823,15.1427 229.564,15.9197 L228.348,19.3457 L232.093,19.3457 L230.838,15.8197 Z M233.706,24.1457 L232.77,21.3967 L227.691,21.3967 L226.755,24.1457 L224.146,24.1457 L228.847,10.7007 L231.774,10.7007 L236.576,24.1457 L233.706,24.1457 Z" id="Fill-262" fill="#FFFFFF" mask="url(#mask-2)"/>
                <path d="M247.0138,24.146 L243.0698,17.354 C242.4718,16.338 242.0138,15.342 241.6158,14.465 C241.6958,15.621 241.7348,17.732 241.7348,19.345 L241.7348,24.146 L239.2258,24.146 L239.2258,10.7 L242.5918,10.7 L246.3368,17.114 C246.9548,18.15 247.4918,19.266 247.9888,20.281 C247.8908,18.927 247.8508,16.537 247.8508,14.883 L247.8508,10.7 L250.3598,10.7 L250.3598,24.146 L247.0138,24.146 Z" id="Fill-263" fill="#FFFFFF" mask="url(#mask-2)"/>
                <path d="M259.5646,24.3253 C254.8626,24.3253 253.3486,21.1983 253.3486,17.8513 C253.3486,13.5883 255.5796,10.6003 260.0826,10.6003 C261.0386,10.6003 262.0546,10.7203 262.9296,10.9593 L262.6516,13.3093 C261.7746,13.0503 260.8596,12.9113 259.9426,12.9113 C257.4326,12.9113 256.1976,14.8043 256.1976,17.4133 C256.1976,20.3413 257.4126,21.9753 260.1216,21.9753 C260.9386,21.9753 262.0336,21.7353 262.7316,21.4173 L263.0296,23.7273 C262.0336,24.0863 260.8186,24.3253 259.5646,24.3253" id="Fill-264" fill="#FFFFFF" mask="url(#mask-2)"/>
                <polygon id="Fill-265" fill="#FFFFFF" mask="url(#mask-2)" points="266.298 24.146 268.887 24.146 268.887 10.7 266.298 10.7"/>
                <path d="M278.2292,15.8197 C277.9702,15.0827 277.7712,14.4257 277.6112,13.6687 L277.5922,13.6687 C277.4332,14.3657 277.2142,15.1427 276.9552,15.9197 L275.7392,19.3457 L279.4842,19.3457 L278.2292,15.8197 Z M281.0972,24.1457 L280.1612,21.3967 L275.0822,21.3967 L274.1462,24.1457 L271.5372,24.1457 L276.2382,10.7007 L279.1652,10.7007 L283.9672,24.1457 L281.0972,24.1457 Z" id="Fill-266" fill="#FFFFFF" mask="url(#mask-2)"/>
                <polygon id="Fill-267" fill="#FFFFFF" mask="url(#mask-2)" points="286.6166 24.146 286.6166 10.7 289.2066 10.7 289.2066 21.875 293.5686 21.875 293.5686 24.146"/>
                <path d="M303.8675,24.3649 C302.9115,24.3649 301.9545,24.2659 301.1185,24.0459 L301.2775,21.6369 C302.0345,21.8949 303.1095,22.1139 304.0855,22.1139 C305.4005,22.1139 306.4165,21.5759 306.4165,20.3419 C306.4165,17.7719 300.7805,18.9469 300.7805,14.5249 C300.7805,12.1349 302.6725,10.4819 305.8985,10.4819 C306.6555,10.4819 307.5315,10.5809 308.3295,10.7199 L308.1895,12.9909 C307.4325,12.7719 306.5955,12.6329 305.7795,12.6329 C304.2855,12.6329 303.5285,13.3099 303.5285,14.2659 C303.5285,16.6759 309.1855,15.7799 309.1855,19.9829 C309.1855,22.5129 307.1735,24.3649 303.8675,24.3649" id="Fill-268" fill="#FFFFFF" mask="url(#mask-2)"/>
                <polygon id="Fill-269" fill="#FFFFFF" mask="url(#mask-2)" points="312.4329 24.146 312.4329 10.7 319.7449 10.7 319.7449 12.872 315.0229 12.872 315.0229 16.178 319.5049 16.178 319.5049 18.29 315.0229 18.29 315.0229 21.935 319.7449 21.935 319.7449 24.146"/>
                <path d="M326.6963,12.7322 C326.3183,12.7322 325.9393,12.7522 325.6803,12.7922 L325.6803,16.6762 C325.8603,16.6962 326.2183,16.7162 326.6163,16.7162 C328.1703,16.7162 329.1273,15.9192 329.1273,14.6642 C329.1273,13.3692 328.3293,12.7322 326.6963,12.7322 Z M329.5243,24.1462 L325.7803,18.5882 L325.6803,18.5882 L325.6803,24.1462 L323.0913,24.1462 L323.0913,10.7002 C324.1473,10.6402 325.4023,10.6202 326.9563,10.6202 C329.9233,10.6202 331.8363,11.6562 331.8363,14.4052 C331.8363,16.3972 330.4413,17.8312 328.4093,18.1502 C328.7883,18.6482 329.1653,19.1662 329.5053,19.6242 L332.7323,24.1462 L329.5243,24.1462 Z" id="Fill-270" fill="#FFFFFF" mask="url(#mask-2)"/>
                <path d="M341.5573,24.146 L338.5683,24.146 L333.8873,10.7 L336.7163,10.7 L339.3263,18.568 C339.5853,19.325 339.8843,20.222 340.1223,21.198 L340.1623,21.198 C340.3623,20.281 340.5803,19.545 340.9593,18.409 L343.6083,10.7 L346.2573,10.7 L341.5573,24.146 Z" id="Fill-271" fill="#FFFFFF" mask="url(#mask-2)"/>
                <polygon id="Fill-272" fill="#FFFFFF" mask="url(#mask-2)" points="348.769 24.146 351.359 24.146 351.359 10.7 348.769 10.7"/>
                <path d="M360.86,24.3253 C356.159,24.3253 354.645,21.1983 354.645,17.8513 C354.645,13.5883 356.876,10.6003 361.378,10.6003 C362.334,10.6003 363.35,10.7203 364.226,10.9593 L363.947,13.3093 C363.071,13.0503 362.155,12.9113 361.239,12.9113 C358.729,12.9113 357.493,14.8043 357.493,17.4133 C357.493,20.3413 358.708,21.9753 361.417,21.9753 C362.234,21.9753 363.33,21.7353 364.027,21.4173 L364.326,23.7273 C363.33,24.0863 362.115,24.3253 360.86,24.3253" id="Fill-273" fill="#FFFFFF" mask="url(#mask-2)"/>
                <polygon id="Fill-274" fill="#FFFFFF" mask="url(#mask-2)" points="367.394 24.146 367.394 10.7 374.706 10.7 374.706 12.872 369.984 12.872 369.984 16.178 374.466 16.178 374.466 18.29 369.984 18.29 369.984 21.935 374.706 21.935 374.706 24.146"/>
                <path d="M380.5419,24.3649 C379.5859,24.3649 378.6289,24.2659 377.7929,24.0459 L377.9519,21.6369 C378.7089,21.8949 379.7839,22.1139 380.7609,22.1139 C382.0749,22.1139 383.0909,21.5759 383.0909,20.3419 C383.0909,17.7719 377.4549,18.9469 377.4549,14.5249 C377.4549,12.1349 379.3469,10.4819 382.5729,10.4819 C383.3299,10.4819 384.2059,10.5809 385.0039,10.7199 L384.8639,12.9909 C384.1069,12.7719 383.2699,12.6329 382.4539,12.6329 C380.9599,12.6329 380.2029,13.3099 380.2029,14.2659 C380.2029,16.6759 385.8599,15.7799 385.8599,19.9829 C385.8599,22.5129 383.8479,24.3649 380.5419,24.3649" id="Fill-275" fill="#FFFFFF" mask="url(#mask-2)"/>
                <path d="M13.167,24.146 L10.179,24.146 L5.498,10.7 L8.327,10.7 L10.936,18.568 C11.195,19.325 11.494,20.222 11.733,21.198 L11.773,21.198 C11.972,20.281 12.191,19.545 12.569,18.409 L15.219,10.7 L17.868,10.7 L13.167,24.146 Z" id="Fill-276" fill="#000000" mask="url(#mask-2)"/>
                <path d="M25.7768,12.8118 C23.9248,12.8118 22.2108,14.2858 22.2108,17.3138 C22.2108,20.1618 23.3268,22.0148 25.7368,22.0148 C27.4898,22.0148 29.3628,20.6598 29.3628,17.4328 C29.3628,14.4448 28.0878,12.8118 25.7768,12.8118 M25.5578,24.3648 C21.4548,24.3648 19.4428,21.7558 19.4428,17.5928 C19.4428,13.1508 22.4108,10.4818 26.0158,10.4818 C29.6018,10.4818 32.1308,12.6328 32.1308,17.2338 C32.1308,21.6758 29.2028,24.3648 25.5578,24.3648" id="Fill-277" fill="#000000" mask="url(#mask-2)"/>
                <polygon id="Fill-278" fill="#000000" mask="url(#mask-2)" points="35.0202 24.146 35.0202 10.7 37.6092 10.7 37.6092 21.875 41.9722 21.875 41.9722 24.146"/>
                <polygon id="Fill-279" fill="#000000" mask="url(#mask-2)" points="51.5142 24.146 47.1912 17.692 47.1912 24.146 44.6022 24.146 44.6022 10.7 47.1912 10.7 47.1912 16.796 51.5542 10.7 54.7012 10.7 49.7812 17.194 54.9202 24.146"/>
                <path d="M59.821,24.3649 C58.865,24.3649 57.909,24.2659 57.072,24.0459 L57.232,21.6369 C57.988,21.8949 59.064,22.1139 60.04,22.1139 C61.355,22.1139 62.371,21.5759 62.371,20.3419 C62.371,17.7719 56.733,18.9469 56.733,14.5249 C56.733,12.1349 58.626,10.4819 61.853,10.4819 C62.61,10.4819 63.486,10.5809 64.283,10.7199 L64.143,12.9909 C63.387,12.7719 62.55,12.6329 61.733,12.6329 C60.239,12.6329 59.482,13.3099 59.482,14.2659 C59.482,16.6759 65.139,15.7799 65.139,19.9829 C65.139,22.5129 63.128,24.3649 59.821,24.3649" id="Fill-280" fill="#000000" mask="url(#mask-2)"/>
                <path d="M81.8326,24.146 L78.6456,24.146 L76.6936,16.736 C76.4546,15.88 76.3156,14.923 76.1756,13.967 L76.1556,13.967 C76.0566,14.903 75.8966,15.78 75.6576,16.676 L73.7056,24.146 L70.6976,24.146 L67.2716,10.7 L70.0406,10.7 L71.8726,18.13 C72.0916,19.007 72.2516,19.923 72.3706,20.859 L72.3906,20.859 C72.5306,19.963 72.6696,19.067 72.9086,18.21 L74.9606,10.7 L77.7096,10.7 L79.7806,18.17 C79.9796,18.907 80.1996,19.844 80.3186,20.78 L80.3386,20.78 C80.4776,19.844 80.6376,19.007 80.8366,18.21 L82.6696,10.7 L85.2586,10.7 L81.8326,24.146 Z" id="Fill-281" fill="#000000" mask="url(#mask-2)"/>
                <path d="M92.7897,15.8197 C92.5307,15.0827 92.3317,14.4257 92.1727,13.6687 L92.1527,13.6687 C91.9927,14.3657 91.7737,15.1427 91.5147,15.9197 L90.2997,19.3457 L94.0447,19.3457 L92.7897,15.8197 Z M95.6587,24.1457 L94.7217,21.3967 L89.6427,21.3967 L88.7057,24.1457 L86.0967,24.1457 L90.7977,10.7007 L93.7257,10.7007 L98.5267,24.1457 L95.6587,24.1457 Z" id="Fill-282" fill="#000000" mask="url(#mask-2)"/>
                <path d="M111.0366,13.4891 C109.9606,13.0711 108.7256,12.8121 107.4716,12.8121 C104.8216,12.8121 102.9096,14.4851 102.9096,17.4931 C102.9096,20.3411 104.4636,22.0141 107.1916,22.0141 C107.8296,22.0141 108.3876,21.9351 108.9046,21.7761 L108.9046,17.0941 L111.4946,17.0941 L111.4946,23.5081 C110.1606,24.0461 108.5066,24.3451 106.8936,24.3451 C102.6306,24.3451 100.1006,21.8351 100.1006,17.7321 C100.1006,13.5091 102.9696,10.5011 107.6306,10.5011 C108.9656,10.5011 110.2796,10.7401 111.4346,11.0791 L111.0366,13.4891 Z" id="Fill-283" fill="#000000" mask="url(#mask-2)"/>
                <polygon id="Fill-284" fill="#000000" mask="url(#mask-2)" points="115.5587 24.146 115.5587 10.7 122.8697 10.7 122.8697 12.872 118.1487 12.872 118.1487 16.178 122.6307 16.178 122.6307 18.29 118.1487 18.29 118.1487 21.935 122.8697 21.935 122.8697 24.146"/>
                <path d="M134.5035,24.146 L130.5595,17.354 C129.9615,16.338 129.5035,15.342 129.1045,14.465 C129.1845,15.621 129.2245,17.732 129.2245,19.345 L129.2245,24.146 L126.7145,24.146 L126.7145,10.7 L130.0815,10.7 L133.8265,17.114 C134.4435,18.15 134.9815,19.266 135.4785,20.281 C135.3795,18.927 135.3395,16.537 135.3395,14.883 L135.3395,10.7 L137.8495,10.7 L137.8495,24.146 L134.5035,24.146 Z" id="Fill-285" fill="#000000" mask="url(#mask-2)"/>
                <path d="M150.1607,12.7322 C149.8417,12.7322 149.5437,12.7322 149.2447,12.7522 L149.2447,17.2342 C149.5037,17.2742 149.7627,17.2932 150.0017,17.2932 C151.5947,17.2742 152.6907,16.3972 152.6907,14.9432 C152.6907,13.5882 151.9137,12.7322 150.1607,12.7322 M150.1207,19.4452 C149.8817,19.4452 149.5627,19.4452 149.2447,19.4052 L149.2447,24.1462 L146.6557,24.1462 L146.6557,10.7002 C147.7507,10.6402 148.9457,10.6202 150.2607,10.6202 C153.5667,10.6202 155.3797,12.1542 155.3797,14.7832 C155.3797,17.3932 153.3877,19.4452 150.1207,19.4452" id="Fill-286" fill="#000000" mask="url(#mask-2)"/>
                <path d="M164.0656,12.8118 C162.2126,12.8118 160.4996,14.2858 160.4996,17.3138 C160.4996,20.1618 161.6156,22.0148 164.0256,22.0148 C165.7786,22.0148 167.6516,20.6598 167.6516,17.4328 C167.6516,14.4448 166.3766,12.8118 164.0656,12.8118 M163.8466,24.3648 C159.7426,24.3648 157.7316,21.7558 157.7316,17.5928 C157.7316,13.1508 160.6996,10.4818 164.3046,10.4818 C167.8896,10.4818 170.4196,12.6328 170.4196,17.2338 C170.4196,21.6758 167.4916,24.3648 163.8466,24.3648" id="Fill-287" fill="#000000" mask="url(#mask-2)"/>
                <path d="M181.4951,24.146 L177.5511,17.354 C176.9541,16.338 176.4951,15.342 176.0961,14.465 C176.1771,15.621 176.2171,17.732 176.2171,19.345 L176.2171,24.146 L173.7071,24.146 L173.7071,10.7 L177.0731,10.7 L180.8181,17.114 C181.4361,18.15 181.9731,19.266 182.4721,20.281 C182.3721,18.927 182.3321,16.537 182.3321,14.883 L182.3321,10.7 L184.8421,10.7 L184.8421,24.146 L181.4951,24.146 Z" id="Fill-288" fill="#000000" mask="url(#mask-2)"/>
                <polygon id="Fill-289" fill="#000000" mask="url(#mask-2)" points="196.2366 12.8915 196.2366 16.3575 200.5786 16.3575 200.5786 18.4885 196.2366 18.4885 196.2366 24.1455 193.6476 24.1455 193.6476 10.7005 200.8376 10.7005 200.8376 12.8915"/>
                <polygon id="Fill-290" fill="#000000" mask="url(#mask-2)" points="203.947 24.146 206.535 24.146 206.535 10.7 203.947 10.7"/>
                <path d="M218.3476,24.146 L214.4036,17.354 C213.8066,16.338 213.3476,15.342 212.9486,14.465 C213.0296,15.621 213.0696,17.732 213.0696,19.345 L213.0696,24.146 L210.5596,24.146 L210.5596,10.7 L213.9256,10.7 L217.6706,17.114 C218.2876,18.15 218.8246,19.266 219.3236,20.281 C219.2236,18.927 219.1836,16.537 219.1836,14.883 L219.1836,10.7 L221.6946,10.7 L221.6946,24.146 L218.3476,24.146 Z" id="Fill-291" fill="#000000" mask="url(#mask-2)"/>
                <path d="M230.838,15.8197 C230.579,15.0827 230.38,14.4257 230.22,13.6687 L230.201,13.6687 C230.042,14.3657 229.823,15.1427 229.564,15.9197 L228.348,19.3457 L232.093,19.3457 L230.838,15.8197 Z M233.706,24.1457 L232.77,21.3967 L227.691,21.3967 L226.755,24.1457 L224.146,24.1457 L228.847,10.7007 L231.774,10.7007 L236.576,24.1457 L233.706,24.1457 Z" id="Fill-292" fill="#000000" mask="url(#mask-2)"/>
                <path d="M247.0138,24.146 L243.0698,17.354 C242.4718,16.338 242.0138,15.342 241.6158,14.465 C241.6958,15.621 241.7348,17.732 241.7348,19.345 L241.7348,24.146 L239.2258,24.146 L239.2258,10.7 L242.5918,10.7 L246.3368,17.114 C246.9548,18.15 247.4918,19.266 247.9888,20.281 C247.8908,18.927 247.8508,16.537 247.8508,14.883 L247.8508,10.7 L250.3598,10.7 L250.3598,24.146 L247.0138,24.146 Z" id="Fill-293" fill="#000000" mask="url(#mask-2)"/>
                <path d="M259.5646,24.3253 C254.8626,24.3253 253.3486,21.1983 253.3486,17.8513 C253.3486,13.5883 255.5796,10.6003 260.0826,10.6003 C261.0386,10.6003 262.0546,10.7203 262.9296,10.9593 L262.6516,13.3093 C261.7746,13.0503 260.8596,12.9113 259.9426,12.9113 C257.4326,12.9113 256.1976,14.8043 256.1976,17.4133 C256.1976,20.3413 257.4126,21.9753 260.1216,21.9753 C260.9386,21.9753 262.0336,21.7353 262.7316,21.4173 L263.0296,23.7273 C262.0336,24.0863 260.8186,24.3253 259.5646,24.3253" id="Fill-294" fill="#000000" mask="url(#mask-2)"/>
                <polygon id="Fill-295" fill="#000000" mask="url(#mask-2)" points="266.298 24.146 268.887 24.146 268.887 10.7 266.298 10.7"/>
                <path d="M278.2292,15.8197 C277.9702,15.0827 277.7712,14.4257 277.6112,13.6687 L277.5922,13.6687 C277.4332,14.3657 277.2142,15.1427 276.9552,15.9197 L275.7392,19.3457 L279.4842,19.3457 L278.2292,15.8197 Z M281.0972,24.1457 L280.1612,21.3967 L275.0822,21.3967 L274.1462,24.1457 L271.5372,24.1457 L276.2382,10.7007 L279.1652,10.7007 L283.9672,24.1457 L281.0972,24.1457 Z" id="Fill-296" fill="#000000" mask="url(#mask-2)"/>
                <polygon id="Fill-297" fill="#000000" mask="url(#mask-2)" points="286.6166 24.146 286.6166 10.7 289.2066 10.7 289.2066 21.875 293.5686 21.875 293.5686 24.146"/>
                <path d="M303.8675,24.3649 C302.9115,24.3649 301.9545,24.2659 301.1185,24.0459 L301.2775,21.6369 C302.0345,21.8949 303.1095,22.1139 304.0855,22.1139 C305.4005,22.1139 306.4165,21.5759 306.4165,20.3419 C306.4165,17.7719 300.7805,18.9469 300.7805,14.5249 C300.7805,12.1349 302.6725,10.4819 305.8985,10.4819 C306.6555,10.4819 307.5315,10.5809 308.3295,10.7199 L308.1895,12.9909 C307.4325,12.7719 306.5955,12.6329 305.7795,12.6329 C304.2855,12.6329 303.5285,13.3099 303.5285,14.2659 C303.5285,16.6759 309.1855,15.7799 309.1855,19.9829 C309.1855,22.5129 307.1735,24.3649 303.8675,24.3649" id="Fill-298" fill="#000000" mask="url(#mask-2)"/>
                <polygon id="Fill-299" fill="#000000" mask="url(#mask-2)" points="312.4329 24.146 312.4329 10.7 319.7449 10.7 319.7449 12.872 315.0229 12.872 315.0229 16.178 319.5049 16.178 319.5049 18.29 315.0229 18.29 315.0229 21.935 319.7449 21.935 319.7449 24.146"/>
                <path d="M326.6963,12.7322 C326.3183,12.7322 325.9393,12.7522 325.6803,12.7922 L325.6803,16.6762 C325.8603,16.6962 326.2183,16.7162 326.6163,16.7162 C328.1703,16.7162 329.1273,15.9192 329.1273,14.6642 C329.1273,13.3692 328.3293,12.7322 326.6963,12.7322 Z M329.5243,24.1462 L325.7803,18.5882 L325.6803,18.5882 L325.6803,24.1462 L323.0913,24.1462 L323.0913,10.7002 C324.1473,10.6402 325.4023,10.6202 326.9563,10.6202 C329.9233,10.6202 331.8363,11.6562 331.8363,14.4052 C331.8363,16.3972 330.4413,17.8312 328.4093,18.1502 C328.7883,18.6482 329.1653,19.1662 329.5053,19.6242 L332.7323,24.1462 L329.5243,24.1462 Z" id="Fill-300" fill="#000000" mask="url(#mask-2)"/>
                <path d="M341.5573,24.146 L338.5683,24.146 L333.8873,10.7 L336.7163,10.7 L339.3263,18.568 C339.5853,19.325 339.8843,20.222 340.1223,21.198 L340.1623,21.198 C340.3623,20.281 340.5803,19.545 340.9593,18.409 L343.6083,10.7 L346.2573,10.7 L341.5573,24.146 Z" id="Fill-301" fill="#000000" mask="url(#mask-2)"/>
                <polygon id="Fill-302" fill="#000000" mask="url(#mask-2)" points="348.769 24.146 351.359 24.146 351.359 10.7 348.769 10.7"/>
                <path d="M360.86,24.3253 C356.159,24.3253 354.645,21.1983 354.645,17.8513 C354.645,13.5883 356.876,10.6003 361.378,10.6003 C362.334,10.6003 363.35,10.7203 364.226,10.9593 L363.947,13.3093 C363.071,13.0503 362.155,12.9113 361.239,12.9113 C358.729,12.9113 357.493,14.8043 357.493,17.4133 C357.493,20.3413 358.708,21.9753 361.417,21.9753 C362.234,21.9753 363.33,21.7353 364.027,21.4173 L364.326,23.7273 C363.33,24.0863 362.115,24.3253 360.86,24.3253" id="Fill-303" fill="#000000" mask="url(#mask-2)"/>
                <polygon id="Fill-304" fill="#000000" mask="url(#mask-2)" points="367.394 24.146 367.394 10.7 374.706 10.7 374.706 12.872 369.984 12.872 369.984 16.178 374.466 16.178 374.466 18.29 369.984 18.29 369.984 21.935 374.706 21.935 374.706 24.146"/>
                <path d="M380.5419,24.3649 C379.5859,24.3649 378.6289,24.2659 377.7929,24.0459 L377.9519,21.6369 C378.7089,21.8949 379.7839,22.1139 380.7609,22.1139 C382.0749,22.1139 383.0909,21.5759 383.0909,20.3419 C383.0909,17.7719 377.4549,18.9469 377.4549,14.5249 C377.4549,12.1349 379.3469,10.4819 382.5729,10.4819 C383.3299,10.4819 384.2059,10.5809 385.0039,10.7199 L384.8639,12.9909 C384.1069,12.7719 383.2699,12.6329 382.4539,12.6329 C380.9599,12.6329 380.2029,13.3099 380.2029,14.2659 C380.2029,16.6759 385.8599,15.7799 385.8599,19.9829 C385.8599,22.5129 383.8479,24.3649 380.5419,24.3649" id="Fill-305" fill="#000000" mask="url(#mask-2)"/>
                <path d="M85.579,38.1115 L85.579,37.5715 L83.127,37.5715 L83.127,42.3815 L83.782,42.3815 L83.782,40.2005 L85.485,40.2005 L85.485,39.6745 L83.782,39.6745 L83.782,38.1115 L85.579,38.1115 Z M88.352,42.3815 L89.007,42.3815 L89.007,37.5715 L88.352,37.5715 L88.352,42.3815 Z M96.062,42.3815 L96.062,37.5715 L95.429,37.5715 L95.429,38.9385 C95.429,39.7365 95.45,40.9195 95.478,41.5125 C95.3,41.1715 95.101,40.8075 94.888,40.4585 L93.098,37.5715 L92.236,37.5715 L92.236,42.3815 L92.877,42.3815 L92.877,40.8365 C92.877,40.0725 92.855,38.9185 92.825,38.4045 C92.983,38.7265 93.154,39.0535 93.376,39.4035 L95.207,42.3815 L96.062,42.3815 Z M102.87,42.3815 L101.102,37.5715 L100.375,37.5715 L98.623,42.3815 L99.291,42.3815 L99.691,41.2565 L101.736,41.2565 L102.136,42.3815 L102.87,42.3815 Z M101.558,40.7355 L99.862,40.7355 L100.482,39.0245 C100.575,38.7825 100.647,38.5335 100.703,38.2975 L100.717,38.2975 C100.774,38.5475 100.838,38.7755 100.931,39.0175 L101.558,40.7355 Z M109.248,42.3815 L109.248,37.5715 L108.616,37.5715 L108.616,38.9385 C108.616,39.7365 108.638,40.9195 108.666,41.5125 C108.487,41.1715 108.288,40.8075 108.073,40.4585 L106.284,37.5715 L105.423,37.5715 L105.423,42.3815 L106.063,42.3815 L106.063,40.8365 C106.063,40.0725 106.042,38.9185 106.013,38.4045 C106.17,38.7265 106.34,39.0535 106.561,39.4035 L108.395,42.3815 L109.248,42.3815 Z M115.558,42.1965 L115.486,41.6135 C115.202,41.7545 114.759,41.8555 114.409,41.8555 C113.291,41.8555 112.777,41.1775 112.777,39.9945 C112.777,38.9385 113.249,38.0985 114.346,38.0985 C114.71,38.0985 115.066,38.1545 115.437,38.2695 L115.507,37.6705 C115.165,37.5865 114.787,37.5275 114.417,37.5275 C112.792,37.5275 112.066,38.6325 112.066,40.1015 C112.066,41.4545 112.707,42.4385 114.253,42.4385 C114.738,42.4385 115.194,42.3465 115.558,42.1965 Z M118.458,42.3815 L119.114,42.3815 L119.114,37.5715 L118.458,37.5715 L118.458,42.3815 Z M124.815,42.3815 L124.815,41.8355 L122.997,41.8355 L122.997,40.1655 L124.73,40.1655 L124.73,39.6375 L122.997,39.6375 L122.997,38.1115 L124.815,38.1115 L124.815,37.5715 L122.342,37.5715 L122.342,42.3815 L124.815,42.3815 Z M130.946,42.3815 L129.584,40.6635 C129.456,40.5075 129.307,40.3215 129.163,40.1515 C130.006,40.0935 130.632,39.6165 130.632,38.7965 C130.632,37.8785 129.949,37.5435 129,37.5435 C128.472,37.5435 128.123,37.5505 127.796,37.5715 L127.796,42.3815 L128.451,42.3815 L128.451,40.2215 L128.48,40.2215 L130.112,42.3815 L130.946,42.3815 Z M129.949,38.8815 C129.949,39.3945 129.549,39.7455 128.857,39.7455 C128.665,39.7455 128.522,39.7365 128.451,39.7295 L128.451,38.0905 C128.579,38.0845 128.721,38.0765 128.885,38.0765 C129.584,38.0765 129.949,38.3045 129.949,38.8815 Z M136.17,42.3815 L136.17,41.8355 L134.352,41.8355 L134.352,40.1655 L136.085,40.1655 L136.085,39.6375 L134.352,39.6375 L134.352,38.1115 L136.17,38.1115 L136.17,37.5715 L133.698,37.5715 L133.698,42.3815 L136.17,42.3815 Z M142.977,42.3815 L142.977,37.5715 L142.343,37.5715 L142.343,38.9385 C142.343,39.7365 142.364,40.9195 142.393,41.5125 C142.215,41.1715 142.016,40.8075 141.801,40.4585 L140.012,37.5715 L139.15,37.5715 L139.15,42.3815 L139.791,42.3815 L139.791,40.8365 C139.791,40.0725 139.769,38.9185 139.742,38.4045 C139.898,38.7265 140.07,39.0535 140.29,39.4035 L142.123,42.3815 L142.977,42.3815 Z M146.279,41.5625 C146.037,41.5625 145.837,41.7635 145.837,42.0025 C145.837,42.2445 146.037,42.4455 146.279,42.4455 C146.52,42.4455 146.719,42.2445 146.719,42.0025 C146.719,41.7635 146.52,41.5625 146.279,41.5625 Z M155.529,42.3815 L155.529,41.8215 L153.804,41.8215 L153.804,37.5715 L153.149,37.5715 L153.149,42.3815 L155.529,42.3815 Z M160.362,42.3815 L160.362,41.8355 L158.545,41.8355 L158.545,40.1655 L160.278,40.1655 L160.278,39.6375 L158.545,39.6375 L158.545,38.1115 L160.362,38.1115 L160.362,37.5715 L157.89,37.5715 L157.89,42.3815 L160.362,42.3815 Z M166.592,42.3815 L164.824,37.5715 L164.097,37.5715 L162.345,42.3815 L163.015,42.3815 L163.414,41.2565 L165.459,41.2565 L165.858,42.3815 L166.592,42.3815 Z M165.281,40.7355 L163.586,40.7355 L164.205,39.0245 C164.298,38.7825 164.369,38.5335 164.426,38.2975 L164.439,38.2975 C164.498,38.5475 164.56,38.7755 164.653,39.0175 L165.281,40.7355 Z M171.432,40.9635 C171.432,39.4595 169.258,39.8365 169.258,38.7965 C169.258,38.3465 169.6,38.0485 170.256,38.0485 C170.542,38.0485 170.848,38.0985 171.126,38.1755 L171.162,37.5925 C170.877,37.5355 170.584,37.5065 170.292,37.5065 C169.209,37.5065 168.583,38.0765 168.583,38.8675 C168.583,40.4005 170.749,39.9725 170.749,41.0555 C170.749,41.6475 170.27,41.8835 169.694,41.8835 C169.357,41.8835 168.981,41.8045 168.703,41.7055 L168.667,42.3325 C168.945,42.4045 169.286,42.4455 169.636,42.4455 C170.756,42.4455 171.432,41.8275 171.432,40.9635 Z M176.799,42.3815 L176.799,41.8355 L174.981,41.8355 L174.981,40.1655 L176.714,40.1655 L176.714,39.6375 L174.981,39.6375 L174.981,38.1115 L176.799,38.1115 L176.799,37.5715 L174.326,37.5715 L174.326,42.3815 L176.799,42.3815 Z M183.605,42.3815 L183.605,37.5715 L182.972,37.5715 L182.972,38.9385 C182.972,39.7365 182.995,40.9195 183.022,41.5125 C182.845,41.1715 182.644,40.8075 182.43,40.4585 L180.641,37.5715 L179.779,37.5715 L179.779,42.3815 L180.419,42.3815 L180.419,40.8365 C180.419,40.0725 180.398,38.9185 180.37,38.4045 C180.526,38.7265 180.696,39.0535 180.918,39.4035 L182.751,42.3815 L183.605,42.3815 Z M186.872,41.5625 C186.63,41.5625 186.429,41.7635 186.429,42.0025 C186.429,42.2445 186.63,42.4455 186.872,42.4455 C187.113,42.4455 187.312,42.2445 187.312,42.0025 C187.312,41.7635 187.113,41.5625 186.872,41.5625 Z M197.45,37.5715 L196.779,37.5715 L195.674,40.6155 C195.531,41.0005 195.432,41.3205 195.338,41.6645 L195.331,41.6645 C195.232,41.3065 195.11,40.9425 195.018,40.6635 L193.942,37.5715 L193.215,37.5715 L194.946,42.3815 L195.681,42.3815 L197.45,37.5715 Z M202.502,42.3815 L202.502,41.8355 L200.685,41.8355 L200.685,40.1655 L202.417,40.1655 L202.417,39.6375 L200.685,39.6375 L200.685,38.1115 L202.502,38.1115 L202.502,37.5715 L200.03,37.5715 L200.03,42.3815 L202.502,42.3815 Z M208.632,42.3815 L207.272,40.6635 C207.143,40.5075 206.995,40.3215 206.852,40.1515 C207.693,40.0935 208.32,39.6165 208.32,38.7965 C208.32,37.8785 207.636,37.5435 206.688,37.5435 C206.158,37.5435 205.81,37.5505 205.483,37.5715 L205.483,42.3815 L206.137,42.3815 L206.137,40.2215 L206.165,40.2215 L207.799,42.3815 L208.632,42.3815 Z M207.636,38.8815 C207.636,39.3945 207.237,39.7455 206.546,39.7455 C206.351,39.7455 206.209,39.7365 206.137,39.7295 L206.137,38.0905 C206.266,38.0845 206.409,38.0765 206.573,38.0765 C207.272,38.0765 207.636,38.3045 207.636,38.8815 Z M214.12,42.3815 L214.12,41.7845 L212.881,41.7845 C212.259,41.7845 211.833,41.7845 211.683,41.7985 C211.784,41.6555 211.876,41.5215 211.969,41.3785 L214.092,38.0685 L214.092,37.5715 L210.992,37.5715 L210.992,38.1545 L212.281,38.1545 C212.773,38.1545 213.101,38.1475 213.329,38.1405 C213.186,38.3325 213.073,38.5105 212.937,38.7185 L210.92,41.8975 L210.92,42.3815 L214.12,42.3815 Z M219.395,42.3815 L219.395,41.8355 L217.577,41.8355 L217.577,40.1655 L219.309,40.1655 L219.309,39.6375 L217.577,39.6375 L217.577,38.1115 L219.395,38.1115 L219.395,37.5715 L216.923,37.5715 L216.923,42.3815 L219.395,42.3815 Z M225.824,42.3815 L223.716,39.8945 L225.746,37.5715 L224.941,37.5715 L223.031,39.8365 L223.031,37.5715 L222.376,37.5715 L222.376,42.3815 L223.031,42.3815 L223.031,40.0015 L224.935,42.3815 L225.824,42.3815 Z M230.893,42.3815 L230.893,41.8355 L229.074,41.8355 L229.074,40.1655 L230.808,40.1655 L230.808,39.6375 L229.074,39.6375 L229.074,38.1115 L230.893,38.1115 L230.893,37.5715 L228.419,37.5715 L228.419,42.3815 L230.893,42.3815 Z M237.023,42.3815 L235.662,40.6635 C235.534,40.5075 235.384,40.3215 235.241,40.1515 C236.083,40.0935 236.71,39.6165 236.71,38.7965 C236.71,37.8785 236.026,37.5435 235.077,37.5435 C234.55,37.5435 234.2,37.5505 233.873,37.5715 L233.873,42.3815 L234.528,42.3815 L234.528,40.2215 L234.557,40.2215 L236.189,42.3815 L237.023,42.3815 Z M236.026,38.8815 C236.026,39.3945 235.626,39.7455 234.934,39.7455 C234.743,39.7455 234.599,39.7365 234.528,39.7295 L234.528,38.0905 C234.656,38.0845 234.799,38.0765 234.964,38.0765 C235.662,38.0765 236.026,38.3045 236.026,38.8815 Z M242.247,42.3815 L242.247,41.8355 L240.429,41.8355 L240.429,40.1655 L242.162,40.1655 L242.162,39.6375 L240.429,39.6375 L240.429,38.1115 L242.247,38.1115 L242.247,37.5715 L239.776,37.5715 L239.776,42.3815 L242.247,42.3815 Z M249.055,42.3815 L249.055,37.5715 L248.421,37.5715 L248.421,38.9385 C248.421,39.7365 248.443,40.9195 248.47,41.5125 C248.293,41.1715 248.093,40.8075 247.879,40.4585 L246.089,37.5715 L245.227,37.5715 L245.227,42.3815 L245.868,42.3815 L245.868,40.8365 C245.868,40.0725 245.847,38.9185 245.819,38.4045 C245.977,38.7265 246.147,39.0535 246.367,39.4035 L248.201,42.3815 L249.055,42.3815 Z M252.356,41.5625 C252.114,41.5625 251.914,41.7635 251.914,42.0025 C251.914,42.2445 252.114,42.4455 252.356,42.4455 C252.598,42.4455 252.797,42.2445 252.797,42.0025 C252.797,41.7635 252.598,41.5625 252.356,41.5625 Z M264.615,42.3815 L263.889,37.5715 L263.075,37.5715 L262.029,40.6425 C261.913,40.9865 261.843,41.2215 261.771,41.5565 L261.756,41.5565 C261.7,41.2705 261.607,40.9495 261.486,40.5995 L260.474,37.5715 L259.669,37.5715 L258.963,42.3815 L259.634,42.3815 L259.961,39.6665 C260.018,39.1945 260.068,38.8115 260.097,38.4195 L260.104,38.4195 C260.159,38.7325 260.289,39.1315 260.411,39.4945 L261.386,42.3815 L262.085,42.3815 L263.119,39.2885 C263.224,38.9465 263.303,38.6465 263.354,38.4195 L263.368,38.4195 C263.396,38.7035 263.439,39.0535 263.518,39.6025 L263.924,42.3815 L264.615,42.3815 Z M271.101,39.9235 C271.101,38.3405 270.253,37.4995 268.957,37.4995 C267.701,37.4995 266.675,38.4265 266.675,40.0295 C266.675,41.4915 267.374,42.4525 268.822,42.4525 C270.075,42.4525 271.101,41.5285 271.101,39.9235 Z M270.404,40.0015 C270.404,41.2425 269.663,41.8695 268.878,41.8695 C267.858,41.8695 267.374,41.0855 267.374,39.9375 C267.374,38.7265 268.086,38.0765 268.884,38.0765 C269.847,38.0765 270.404,38.7685 270.404,40.0015 Z M276.725,40.9425 C276.725,40.4425 276.426,39.9525 275.757,39.8365 L275.757,39.8235 C276.278,39.6595 276.619,39.2115 276.619,38.7045 C276.619,37.9835 276.113,37.5505 275.059,37.5505 C274.48,37.5505 273.989,37.5645 273.64,37.5715 L273.64,42.3815 C274.109,42.3875 274.581,42.4045 274.865,42.4045 C276.37,42.4045 276.725,41.5215 276.725,40.9425 Z M275.941,38.8115 C275.941,39.3375 275.521,39.6525 274.73,39.6525 C274.559,39.6525 274.43,39.6525 274.295,39.6445 L274.295,38.0905 C274.487,38.0845 274.723,38.0765 274.944,38.0765 C275.722,38.0765 275.941,38.3835 275.941,38.8115 Z M276.04,40.9635 C276.04,41.4915 275.692,41.8695 274.909,41.8695 C274.623,41.8695 274.416,41.8555 274.295,41.8355 L274.295,40.1505 C274.408,40.1435 274.658,40.1435 274.745,40.1435 C275.485,40.1435 276.04,40.3435 276.04,40.9635 Z M279.371,42.3815 L280.026,42.3815 L280.026,37.5715 L279.371,37.5715 L279.371,42.3815 Z M285.571,42.3815 L285.571,41.8215 L283.846,41.8215 L283.846,37.5715 L283.192,37.5715 L283.192,42.3815 L285.571,42.3815 Z M287.967,42.3815 L288.621,42.3815 L288.621,37.5715 L287.967,37.5715 L287.967,42.3815 Z M294.346,38.1185 L294.346,37.5715 L290.918,37.5715 L290.918,38.1185 L292.302,38.1185 L292.302,42.3815 L292.956,42.3815 L292.956,38.1185 L294.346,38.1185 Z M298.715,42.3815 L298.715,41.8355 L296.898,41.8355 L296.898,40.1655 L298.63,40.1655 L298.63,39.6375 L296.898,39.6375 L296.898,38.1115 L298.715,38.1115 L298.715,37.5715 L296.244,37.5715 L296.244,42.3815 L298.715,42.3815 Z M301.695,42.3815 L302.35,42.3815 L302.35,37.5715 L301.695,37.5715 L301.695,42.3815 Z M308.38,38.1185 L308.38,37.5715 L304.952,37.5715 L304.952,38.1185 L306.335,38.1185 L306.335,42.3815 L306.989,42.3815 L306.989,38.1185 L308.38,38.1185 Z M310.73,41.5625 C310.488,41.5625 310.289,41.7635 310.289,42.0025 C310.289,42.2445 310.488,42.4455 310.73,42.4455 C310.972,42.4455 311.172,42.2445 311.172,42.0025 C311.172,41.7635 310.972,41.5625 310.73,41.5625 Z" id="Fill-306" fill="#000000" mask="url(#mask-2)"/>
            </g>
        </g>
    </g>
</svg>