<svg xmlns="http://www.w3.org/2000/svg" width="848" height="446" viewBox="0 0 848 446">
  <g fill="none">
    <path fill="#000" d="M.03 290.34209C.03 234.1133 41.32135 207.75567 77.21283 207.75567 97.8613 207.75567 114.05902 215.37041 124.53605 226.49856L124.53605 137.87256 168.05952 137.87256 168.05952 369.75134 124.53605 369.75134 124.53605 351.9631C114.05905 364.34576 97.22743 372.92286 76.57884 372.92286 42.90993 372.92286.03 346.24246.03 290.34209M125.81346 290.01938C125.81346 266.19362 108.97604 247.45644 85.15599 247.45644 61.33012 247.45644 42.58723 265.56544 42.58723 290.01938 42.58723 314.16219 61.33012 332.90514 85.15599 332.90514 108.97604 332.90514 125.81346 313.84526 125.81346 290.01938M233.82553 354.18L233.82553 442.80027 190.31353 442.80027 190.31353 210.933 233.82553 210.933 233.82553 229.03048C243.99127 216.64788 259.87387 207.75572 281.47146 207.75572 317.36865 207.75572 358.33729 234.11335 358.33729 290.34214 358.33729 346.24251 316.09694 372.92291 282.10529 372.92291 260.82854 372.92291 243.99123 365.94591 233.82549 354.18002M315.78002 290.01943C315.78002 265.56551 297.67102 247.45649 273.21126 247.45649 249.3911 247.45649 232.55379 266.19367 232.55379 290.01943 232.55379 313.84519 249.3911 332.90519 273.21126 332.90519 297.67101 332.90519 315.78002 314.16219 315.78002 290.01943M371.37493 290.34214C371.37493 234.11335 412.67194 207.75572 448.55777 207.75572 469.20437 207.75572 485.40955 216.33287 495.88669 228.08148L495.88669 210.933 539.4045 210.933 539.4045 367.20606C539.4045 414.85769 504.14677 445.97753 462.53284 445.97753 417.7549 445.97753 388.52916 419.94062 379.31429 385.31123L426.32629 385.31123C432.36388 398.02609 441.89189 405.32582 462.53279 405.32582 481.59256 405.32582 495.88668 389.12629 495.88668 368.47963L495.88668 351.9631C485.40954 364.34576 468.57224 372.92286 447.92377 372.92286 414.25486 372.92286 371.37493 346.24246 371.37493 290.34209M497.15839 290.01938C497.15839 266.19362 480.32668 247.45644 456.50092 247.45644 432.68087 247.45644 413.93786 265.56544 413.93786 290.01938 413.93786 314.16219 432.68086 332.90514 456.50092 332.90514 480.32668 332.90514 497.15839 313.84526 497.15839 290.01938M253.26278 135.10563L263.65378 135.10563 263.65378 140.9924C266.79867 136.6714 271.80135 134.1224 278.07761 134.1224 285.91961 134.1224 291.41493 137.4639 294.25809 142.9535 297.69119 137.4639 303.47494 134.1224 310.83574 134.1224 324.27049 134.1224 331.13296 142.06556 331.13296 154.7194L331.13296 184.14174 320.4421 184.14174 320.4421 155.40284C320.4421 147.9523 316.52395 143.24178 309.06759 143.24178 302.39415 143.24178 297.39717 147.75371 297.39717 156.48365L297.39717 184.14174 286.80757 184.14174 286.80757 154.91791C286.80757 147.75371 282.78244 143.24178 275.72523 143.24178 268.75962 143.24178 263.75694 147.85487 263.75694 156.87885L263.75694 184.14174 253.26278 184.14174 253.26278 135.10563zM341.37447 159.82305C341.37447 173.65311 351.18324 185.12493 366.68019 185.12493 379.33387 185.12493 387.47003 178.54881 391.29261 167.66517L380.01751 167.66517C378.15202 172.76517 373.54451 176.00353 366.77751 176.00353 358.14884 176.00353 352.5561 170.50822 351.37611 162.96025L392.07741 162.96025 392.07741 159.33043C392.07741 144.71569 381.29108 134.12026 366.77751 134.12026 352.35951 134.12026 341.37447 145.40504 341.37447 159.82305L341.37447 159.82305zM352.06546 154.13486C354.093799 147.687843 360.115194 143.338126 366.873 143.43827 374.33123 143.43827 379.5268 147.16937 381.39229 154.13486L352.06546 154.13486 352.06546 154.13486zM402.00015 159.62504C402.00015 175.21931 413.9646 185.125901 426.41981 185.125901 432.773665 185.169346 438.801928 182.318251 442.79888 177.37884L442.79888 184.142 453.19572 184.142 453.19572 112.54622 442.79888 112.54622 442.79888 141.48165C439.16905 136.87415 433.09138 134.12085 426.52109 134.12085 413.57325 134.12085 402.00015 143.93148 402.00015 159.62504L402.00015 159.62504zM443.38706 159.52948C443.38706 168.35487 436.81665 175.51335 427.89011 175.51335 419.16017 175.51335 412.39699 168.54774 412.39699 159.52948 412.39699 150.59722 419.16017 143.63733 427.89011 143.63733 436.81665 143.63733 443.38706 150.89697 443.38706 159.52948L443.38706 159.52948zM472.51467 113.4338C469.658218 113.433801 467.083139 115.154791 465.990557 117.79403 464.897974 120.433268 465.503136 123.470803 467.523769 125.489803 469.544402 127.508802 472.582426 128.111506 475.22078 127.016789 477.859133 125.922071 479.57804 123.345601 479.57573 120.48915 479.682651 118.586179 478.972919 116.72793 477.624648 115.380749 476.276376 114.033568 474.417554 113.32534 472.51467 113.4338L472.51467 113.4338zM467.22156 184.13992L477.81687 184.13992 477.81687 135.10392 467.22156 135.10392 467.22156 184.13992zM488.11151 159.62504C488.11151 175.21931 500.07601 185.1254 512.5311 185.1254 518.885047 185.169778 524.913485 182.318597 528.91016 177.37884L528.91016 184.142 539.4045 184.142 539.4045 135.1041 528.91011 135.1041 528.91011 141.48164C525.28029 136.87414 519.20262 134.12084 512.63244 134.12084 499.68461 134.12084 488.11151 143.93147 488.11151 159.62503L488.11151 159.62504zM529.49842 159.52947C529.49842 168.35486 522.92801 175.51334 514.00134 175.51334 505.27141 175.51334 498.50823 168.54773 498.50823 159.52947 498.50823 150.59721 505.27141 143.63732 514.00134 143.63732 522.92801 143.63732 529.49842 150.89696 529.49842 159.52947L529.49842 159.52947z"/>
    <rect width="43.523" height="71.595" x="592.985" y="112.545" fill="#783C96"/>
    <rect width="43.523" height="76.793" x="803.997" y="58.3" fill="#FABB22"/>
    <rect width="43.523" height="152.633" x="663.322" y="58.3" fill="#D23278"/>
    <rect width="43.448" height="183.956" x="733.697" y=".176" fill="#E6463C"/>
  </g>
</svg>