<?xml version="1.0" encoding="utf-8"?>
<!-- Generator: Adobe Illustrator 25.2.0, SVG Export Plug-In . SVG Version: 6.00 Build 0)  -->
<svg version="1.1" id="Calque_1" xmlns="http://www.w3.org/2000/svg" xmlns:xlink="http://www.w3.org/1999/xlink" x="0px" y="0px"
	 viewBox="-100 -100 693 683" style="enable-background:new 0 0 493 483;" xml:space="preserve">
<g>
	<g>
		<path d="M227.57-79.8c-6.46,12.07-93.54,174.97-131.05,244.96c-1.3,2.42-1.2,4.17,0.07,6.54c36.75,68.58,111.23,207.7,112,209
			c0.77-1.29,75.25-140.42,112-208.99c1.27-2.37,1.38-4.12,0.07-6.54c-21.03-39.11-41.92-78.3-62.95-117.41
			c-1.35-2.5-1.44-4.37-0.04-6.89c5.78-10.42,11.32-20.97,17.18-31.91c0.83,1.41,56.56,105.44,83.89,156.41
			c1.15,2.14,1.25,3.74,0.07,5.95c-43.25,80.71-86.43,161.46-129.56,242.24c-1.15,2.16-2.32,3.14-4.94,3.1
			c-10.68-0.18-21.37-0.13-32.05-0.03c-1.98,0.02-3.03-0.61-3.96-2.37c-43.35-81.18-86.74-162.34-130.18-243.47
			c-0.9-1.69-0.98-2.95-0.05-4.7C101.52,84.94,144.9,3.78,188.35-77.35c0.55-1.02,1.84-2.33,2.8-2.34
			C203.07-79.86,214.99-79.8,227.57-79.8z"/>
		<path d="M276.97-30.1c-19.88,37.05-74.68,139.41-104.55,195.16c-1.27,2.38-1.36,4.13-0.06,6.54
			c21.03,39.12,41.92,78.3,62.95,117.41c1.35,2.51,1.42,4.37,0.02,6.89c-5.78,10.42-11.32,20.97-17.19,31.92
			c-0.78-1.32-56.5-105.36-83.89-156.43c-1.15-2.14-1.24-3.74-0.06-5.95C177.43,84.74,220.61,3.99,263.74-76.79
			c1.16-2.17,2.34-3.13,4.94-3.09c10.68,0.18,21.37,0.13,32.05,0.03c1.99-0.02,3.02,0.63,3.96,2.38
			C348.05,3.71,391.44,84.87,434.88,166c0.91,1.69,0.97,2.96,0.04,4.7c-43.44,81.13-86.82,162.29-130.27,243.42
			c-0.55,1.02-1.84,2.32-2.8,2.33c-11.92,0.16-23.84,0.1-36.33,0.1c0.82-1.6,87.94-164.65,130.97-244.96
			c1.3-2.42,1.2-4.17-0.08-6.54C359.66,96.47,285.18-42.65,284.41-43.94C284.27-43.7,281.54-38.63,276.97-30.1"/>
	</g>
	<g>
		<path d="M-30,561.25h-18.07v-78.52c0-1-0.11-1.65-0.34-1.97c-0.23-0.32-0.79-0.66-1.7-1.02l-4.89-1.9l1.49-7.88h45.64
			c11.77,0,20.24,2.24,25.4,6.72c5.16,4.48,7.74,11.71,7.74,21.67c0,7.88-1.61,13.95-4.82,18.2c-3.22,4.26-8.22,7.02-15.01,8.29
			l22.28,36.41H7.76l-20.24-34.37H-30V561.25z M-30,513.3h20.1c6.25,0,10.71-1.13,13.38-3.4c2.67-2.26,4.01-6.11,4.01-11.55
			c0-5.34-1.34-9.15-4.01-11.41c-2.67-2.26-7.13-3.4-13.38-3.4H-30V513.3z"/>
		<path d="M109.1,469.97v13.86H61.28v24.32h38.04v13.31H61.28v25.95h48.9v13.86H43.22v-78.52c0-1-0.11-1.65-0.34-1.97
			c-0.23-0.32-0.79-0.66-1.7-1.02l-4.89-1.9l1.49-7.88H109.1z"/>
		<path d="M125.13,482.73c0-1-0.11-1.65-0.34-1.97c-0.23-0.32-0.79-0.66-1.7-1.02l-4.89-1.9l1.49-7.88h20.38
			c1.36,0,2.24,0.16,2.65,0.48c0.41,0.32,1.15,1.2,2.24,2.65l46.87,63.44v-66.56h16.71v91.28h-17.52l-49.17-66.56v66.56h-16.71
			V482.73z"/>
		<path d="M273.06,469.97c1.81,3.26,3.76,7.18,5.84,11.75c2.08,4.57,4.23,9.53,6.45,14.87c2.22,5.35,4.41,10.91,6.59,16.71
			c2.17,5.8,4.23,11.55,6.18,17.25c1.95,5.7,3.74,11.19,5.37,16.44c1.63,5.25,2.99,10.01,4.07,14.26h-18.2
			c-1-3.71-2.04-7.34-3.12-10.87c-1.09-3.53-2.13-7.02-3.13-10.46H242.9c-1.09,3.44-2.15,6.93-3.19,10.46
			c-1.04,3.53-2.06,7.16-3.06,10.87h-18.2c1.09-4.26,2.45-9.01,4.08-14.26c1.63-5.25,3.42-10.73,5.37-16.44
			c1.95-5.71,4.01-11.46,6.18-17.25c2.17-5.79,4.37-11.36,6.59-16.71c2.22-5.34,4.37-10.3,6.45-14.87
			c2.08-4.57,4.03-8.49,5.84-11.75H273.06z M263,485.99c-5.8,13.04-11.05,26.58-15.76,40.62h31.52
			C273.87,512.57,268.62,499.04,263,485.99z"/>
		<path d="M316.66,482.73c0-1-0.12-1.65-0.34-1.97c-0.23-0.32-0.79-0.66-1.7-1.02l-4.89-1.9l1.49-7.88h22.28
			c0.81,0,1.22,0.45,1.22,1.36v52.84c0,8.69,1.86,14.94,5.57,18.75c3.71,3.8,9.73,5.7,18.07,5.7c8.42,0,14.47-1.9,18.14-5.7
			c3.67-3.8,5.5-10.05,5.5-18.75v-54.2h18.07v55.56c0,6.61-0.79,12.27-2.38,16.98c-1.58,4.71-4.05,8.58-7.4,11.61
			c-3.35,3.03-7.68,5.25-12.97,6.66c-5.3,1.4-11.61,2.1-18.95,2.1c-7.34,0-13.65-0.7-18.95-2.1s-9.62-3.62-12.97-6.66
			c-3.35-3.03-5.82-6.9-7.4-11.61c-1.59-4.71-2.38-10.37-2.38-16.98V482.73z"/>
		<path d="M420.99,482.73c0-1-0.11-1.65-0.34-1.97c-0.23-0.32-0.79-0.66-1.7-1.02l-4.89-1.9l1.49-7.88h22.28
			c0.81,0,1.22,0.45,1.22,1.36v76.07h41.7v13.86h-59.77V482.73z"/>
		<path d="M500.32,483.82H470.7v-13.86H548v13.86h-29.61v77.43h-18.07V483.82z"/>
	</g>
</g>
</svg>
