<?xml version="1.0" encoding="UTF-8" standalone="no"?>
<!DOCTYPE svg PUBLIC "-//W3C//DTD SVG 1.1//EN" "http://www.w3.org/Graphics/SVG/1.1/DTD/svg11.dtd">
<svg xmlns="http://www.w3.org/2000/svg" xmlns:xlink="http://www.w3.org/1999/xlink" version="1.1" width="375pt" height="120pt" viewBox="0 0 375 120">
<g enable-background="new">
<g clip-path="url(#cp2)">
<g id="Layer-1" data-name="P">
</g>
<symbol id="font_3_49">
<path d="M .40625 .63964846 C .40559898 .64160159 .4075521 .6464844 .41210938 .6542969 C .41666667 .66276046 .42154948 .67285159 .4267578 .6845703 C .4326172 .6969401 .43815104 .710612 .44335938 .72558596 C .44921876 .74121096 .453125 .75716146 .45507813 .7734375 C .45768229 .78971359 .45768229 .80598959 .45507813 .8222656 C .45247398 .8385417 .44563804 .8541667 .4345703 .8691406 C .4280599 .8769531 .41829429 .8811849 .40527345 .88183596 C .39290367 .883138 .37858073 .8811849 .3623047 .87597659 C .3466797 .87141928 .33007813 .8639323 .3125 .8535156 C .2955729 .84375 .2799479 .83203127 .265625 .8183594 C .2513021 .80533859 .2389323 .7906901 .22851563 .77441409 C .21875 .758138 .21321614 .74153646 .21191406 .7246094 C .21061199 .7109375 .2109375 .6982422 .21289063 .68652346 C .2154948 .6748047 .21875 .6640625 .22265625 .6542969 C .2265625 .64453127 .23079427 .6354167 .23535156 .6269531 C .23990886 .61848959 .24414063 .6110026 .24804688 .6044922 C .25325523 .5953776 .26139323 .58528646 .27246095 .57421877 C .28352867 .56315109 .2955729 .55045577 .30859376 .5361328 C .3216146 .52246096 .3346354 .50683596 .34765626 .4892578 C .3606771 .4716797 .3720703 .4518229 .38183595 .4296875 C .39160157 .4075521 .3984375 .3828125 .40234376 .35546876 C .40625 .328125 .40592448 .29785157 .4013672 .26464845 C .39420573 .21647136 .3828125 .1764323 .3671875 .14453125 C .3515625 .111979167 .3343099 .0859375 .3154297 .06640625 C .29720054 .046875 .27864585 .032877607 .25976563 .024414063 C .24088542 .0152994799 .22526042 .0094401049 .21289063 .0068359377 C .203125 .0048828127 .19140625 .0032552083 .17773438 .001953125 C .16471355 0 .15071614 .00032552085 .13574219 .0029296876 C .12141927 .0048828127 .106770839 .0094401049 .091796878 .016601563 C .076822917 .023111979 .06347656 .033528646 .051757814 .047851564 C .038085939 .0641276 .02734375 .08170573 .01953125 .10058594 C .012369792 .11686198 .0071614587 .13574219 .00390625 .15722656 C 0 .17805989 .0016276041 .1998698 .0087890629 .22265625 C .0139973959 .22851563 .01953125 .23372396 .025390625 .23828125 C .03125 .24283855 .037109376 .2467448 .04296875 .25 C .049479169 .25390626 .056315107 .25748698 .06347656 .2607422 C .0719401 .26334635 .08040365 .265625 .08886719 .26757813 C .09602865 .26888023 .103515628 .26953126 .111328128 .26953126 C .119791667 .27018229 .12760417 .26920573 .13476563 .26660157 C .125 .25553385 .11816406 .24511719 .11425781 .23535156 C .11165365 .23014324 .10970052 .22558594 .10839844 .22167969 C .10579427 .20930989 .10481771 .19466146 .10546875 .17773438 C .106770839 .16015625 .11035156 .14355469 .11621094 .12792969 C .12272135 .11165365 .13183594 .09798177 .14355469 .08691406 C .15527344 .07519531 .17089844 .069010417 .19042969 .068359378 C .23795574 .06705729 .2783203 .104166667 .31152345 .1796875 C .32259117 .203125 .328125 .22688802 .328125 .25097657 C .32877604 .2750651 .32584635 .2981771 .31933595 .3203125 C .31347657 .3424479 .30533854 .36295573 .29492188 .38183595 C .28515626 .4013672 .2750651 .41796876 .26464845 .43164063 C .25423179 .4453125 .24153646 .45996095 .2265625 .47558595 C .21223958 .49186198 .19791667 .5094401 .18359375 .5283203 C .16927083 .5472005 .15625 .5677083 .14453125 .58984377 C .13346355 .6119792 .12597656 .6360677 .12207031 .6621094 C .11686198 .6985677 .12011719 .7317708 .13183594 .76171877 C .14420574 .7923177 .16048177 .81901046 .18066406 .8417969 C .20149739 .8645833 .22395833 .883138 .24804688 .89746096 C .27278648 .9117839 .29459635 .92089846 .31347657 .9248047 C .41829429 .945638 .48697917 .9280599 .51953127 .8720703 C .5332031 .85058596 .5406901 .8277995 .5419922 .80371096 C .54329428 .7796224 .5416667 .75716146 .5371094 .7363281 C .5332031 .7161458 .5279948 .69889327 .5214844 .6845703 C .515625 .67089846 .51171877 .66341146 .5097656 .6621094 C .5058594 .6582031 .49967448 .6539714 .49121095 .64941409 C .4827474 .64485678 .46907554 .640625 .4501953 .63671877 C .44498698 .6354167 .43977867 .6347656 .4345703 .6347656 C .43001304 .6347656 .42513023 .6350911 .41992188 .6357422 C .41471354 .63639327 .41015626 .6376953 .40625 .63964846 Z "/>
</symbol>
<symbol id="font_3_57">
<path d="M .5175781 .20898438 C .50846359 .19596355 .49674479 .1796875 .48242188 .16015625 C .46809898 .14127605 .453125 .12207031 .4375 .10253906 C .42252604 .08365885 .4075521 .06608073 .39257813 .049804689 C .37825523 .034179689 .36621095 .023111979 .3564453 .016601563 C .3499349 .0126953129 .3424479 .0094401049 .33398438 .0068359377 C .32552085 .004231771 .31673179 .0026041668 .3076172 .001953125 C .29915367 .0013020834 .29101563 .001953125 .28320313 .00390625 C .27539063 .0052083337 .2685547 .0078125 .2626953 .01171875 C .25683595 .016276041 .25195313 .022786459 .24804688 .03125 C .24479167 .038411458 .24153646 .047851564 .23828125 .059570314 C .23567708 .07128906 .23470052 .0859375 .23535156 .103515628 C .21972656 .07747396 .20247396 .057291669 .18359375 .04296875 C .16471355 .029296875 .14680989 .019205729 .12988281 .0126953129 C .11035156 .005533854 .09082031 .0013020834 .07128906 0 C .06217448 0 .052408857 .0032552083 .041992189 .009765625 C .03157552 .015625 .022786459 .025065104 .015625 .038085939 C .008463542 .051757814 .00390625 .069010417 .001953125 .08984375 C 0 .111328128 .0026041668 .13671875 .009765625 .16601563 C .018880209 .20572917 .033203126 .24186199 .052734376 .27441407 C .072916667 .30696617 .09472656 .3346354 .11816406 .35742188 C .14160156 .38085938 .16471355 .3984375 .1875 .41015626 C .21028646 .421875 .22916667 .42708335 .24414063 .42578126 C .26171876 .42252604 .27604167 .41731773 .28710938 .41015626 C .29622398 .40364585 .30208335 .39388023 .3046875 .38085938 C .30794273 .3684896 .30273438 .35188804 .2890625 .3310547 C .2981771 .3330078 .30566407 .3343099 .31152345 .33496095 C .31803385 .33561198 .32291667 .3359375 .32617188 .3359375 C .33007813 .3359375 .33268229 .33561198 .33398438 .33496095 C .3346354 .33365885 .33496095 .33072917 .33496095 .32617188 C .33496095 .32226563 .33398438 .31477867 .33203126 .30371095 C .33007813 .29264323 .32714845 .27766929 .3232422 .25878907 C .31933595 .23990886 .3141276 .2154948 .3076172 .18554688 C .3063151 .1796875 .30501304 .17415364 .30371095 .16894531 C .3030599 .16438802 .30208335 .1595052 .30078126 .15429688 C .30013023 .14973958 .29915367 .14420574 .29785157 .13769531 C .29654948 .13118489 .29492188 .123046878 .29296876 .11328125 C .29231773 .107421878 .2919922 .10091146 .2919922 .09375 C .29264323 .087239589 .2939453 .08105469 .29589845 .07519531 C .29785157 .06933594 .30078126 .064453128 .3046875 .060546876 C .30924479 .057291669 .3154297 .055664064 .3232422 .055664064 C .3297526 .055664064 .33821617 .059570314 .3486328 .06738281 C .35904948 .07584635 .3701172 .08626302 .38183595 .09863281 C .3935547 .11165365 .40559898 .12565105 .41796876 .140625 C .4309896 .15625 .44303385 .17122396 .45410157 .18554688 C .46516929 .1998698 .4749349 .21256511 .48339845 .22363281 C .49251304 .23470052 .49902345 .24283855 .5029297 .24804688 C .508138 .25390626 .5133464 .25716148 .5185547 .2578125 C .523763 .2591146 .52766928 .2578125 .53027346 .25390626 C .5328776 .25 .5332031 .24414063 .53125 .23632813 C .52994796 .22851563 .5253906 .21940105 .5175781 .20898438 M .23144531 .16601563 C .23470052 .17903646 .23860677 .19433594 .24316406 .21191406 C .24772136 .22949219 .2516276 .24641927 .2548828 .2626953 C .25813804 .27897135 .26041667 .29231773 .26171876 .30273438 C .26367188 .3138021 .26334635 .3190104 .2607422 .31835938 C .25748698 .31770835 .25390626 .31673179 .25 .3154297 C .2467448 .3141276 .24251302 .31315104 .23730469 .3125 C .23209636 .31184898 .22688802 .3108724 .22167969 .3095703 C .22688802 .31998698 .2298177 .32845054 .23046875 .33496095 C .23177083 .3421224 .23209636 .34765626 .23144531 .3515625 C .23079427 .35611979 .22949219 .35970054 .22753906 .3623047 C .22037761 .36816407 .2076823 .36328126 .18945313 .34765626 C .171875 .33268229 .15136719 .3046875 .12792969 .26367188 C .11816406 .2467448 .11035156 .22851563 .10449219 .20898438 C .09863281 .19010417 .09440104 .17220052 .091796878 .15527344 C .08984375 .13834636 .08951823 .1233724 .09082031 .11035156 C .0921224 .09798177 .09472656 .08984375 .09863281 .0859375 C .10579427 .07877604 .11393229 .07519531 .123046878 .07519531 C .13216146 .07584635 .14127605 .07845052 .15039063 .08300781 C .16015625 .08821615 .16959636 .09472656 .17871094 .10253906 C .18847656 .11035156 .19694011 .118489589 .20410156 .12695313 C .21191406 .13541667 .21809896 .14322917 .22265625 .15039063 C .22786458 .15755208 .23079427 .16276042 .23144531 .16601563 Z "/>
</symbol>
<symbol id="font_3_63">
<path d="M .4609375 .068359378 C .4609375 .08203125 .4622396 .09765625 .46484376 .115234378 C .46809898 .1328125 .47200523 .15071614 .4765625 .16894531 C .48111979 .18782552 .4856771 .20605469 .49023438 .22363281 C .49479167 .24121094 .4986979 .25683595 .5019531 .2705078 C .5058594 .2874349 .5055339 .30045573 .50097659 .3095703 C .49641929 .3186849 .48860679 .3232422 .47753907 .3232422 C .47233073 .3232422 .46191407 .3186849 .44628907 .3095703 C .4313151 .30045573 .41471354 .28450523 .39648438 .26171876 C .37890626 .23958333 .36132813 .20930989 .34375 .17089844 C .3268229 .13313802 .31347657 .08496094 .30371095 .026367188 C .29134117 .019856772 .2796224 .015625 .2685547 .013671875 C .2626953 .012369792 .25748698 .0113932299 .2529297 .0107421879 C .23990886 .0100911459 .23144531 .012369792 .22753906 .017578125 C .22363281 .022135416 .22428386 .033854169 .22949219 .052734376 C .23209636 .061848958 .23665364 .0764974 .24316406 .09667969 C .25032554 .11686198 .25716148 .13867188 .26367188 .16210938 C .27018229 .18619792 .27571617 .20996094 .28027345 .23339844 C .28548179 .25748698 .28808595 .2783203 .28808595 .29589845 C .28808595 .30826823 .28580729 .31673179 .28125 .32128907 C .27734376 .32584635 .27148438 .328125 .26367188 .328125 C .2578125 .328125 .24804688 .32486979 .234375 .31835938 C .22070313 .31184898 .20540364 .29915367 .18847656 .28027345 C .17154949 .26139323 .15462239 .23502605 .13769531 .20117188 C .12141927 .16796875 .107421878 .12467448 .095703128 .07128906 L .095703128 .07324219 C .09440104 .06803385 .09309896 .06282552 .091796878 .057617189 C .09049479 .053059896 .08951823 .048177083 .08886719 .04296875 C .08821615 .037760419 .087239589 .032877607 .0859375 .028320313 L .037109376 .0068359377 C .033854169 .005533854 .029622397 .0045572917 .024414063 .00390625 C .019856772 .0032552083 .0152994799 .004231771 .0107421879 .0068359377 C .0068359377 .0087890629 .00390625 .0133463549 .001953125 .020507813 C 0 .027669272 .0006510417 .038411458 .00390625 .052734376 L .06542969 .3076172 C .06738281 .31608073 .069010417 .32421876 .0703125 .33203126 C .071614589 .33919273 .072265628 .34602867 .072265628 .35253907 C .072916667 .35970054 .07259115 .3655599 .07128906 .3701172 C .08235677 .37532554 .0921224 .37923179 .10058594 .38183595 C .10904948 .3844401 .115885417 .38639323 .12109375 .3876953 C .12760417 .38964845 .13313802 .390625 .13769531 .390625 C .15852864 .390625 .16536458 .37272135 .15820313 .33691407 C .15559896 .3264974 .1516927 .3111979 .14648438 .29101563 C .15885417 .30664063 .171875 .32128907 .18554688 .33496095 C .1998698 .34928385 .2141927 .36197917 .22851563 .37304688 C .24283855 .3841146 .25716148 .39290367 .27148438 .39941407 C .28645835 .40592448 .30110679 .4091797 .3154297 .4091797 C .3264974 .4091797 .33561198 .40592448 .34277345 .39941407 C .35058595 .39290367 .3564453 .3841146 .36035157 .37304688 C .36490885 .36263023 .36751304 .3499349 .36816407 .33496095 C .3688151 .32063804 .36816407 .30566407 .36621095 .29003907 C .3766276 .30371095 .38802085 .3173828 .40039063 .3310547 C .41341148 .3453776 .4267578 .3580729 .4404297 .36914063 C .4547526 .38020835 .46940104 .3893229 .484375 .39648438 C .49934898 .40364585 .51432296 .40722657 .5292969 .40722657 C .546875 .40722657 .5602214 .40201823 .56933596 .39160157 C .57910159 .3811849 .585612 .36783854 .5888672 .3515625 C .59277346 .33528648 .59375 .31770835 .5917969 .29882813 C .5904948 .2799479 .5878906 .26171876 .5839844 .24414063 L .55078127 .11230469 C .5436198 .0797526 .55045577 .06347656 .57128909 .06347656 C .5875651 .06347656 .60546877 .07128906 .625 .08691406 C .64453127 .10253906 .66341146 .12109375 .6816406 .14257813 C .7005208 .1640625 .71809896 .18619792 .734375 .20898438 C .75065109 .23177083 .76432296 .25 .7753906 .26367188 C .7792969 .26822917 .7832031 .27083335 .7871094 .27148438 C .7916667 .2721354 .7952474 .27115885 .79785159 .2685547 C .80110678 .26660157 .8027344 .26302085 .8027344 .2578125 C .80338546 .25260417 .8017578 .24609375 .79785159 .23828125 C .78483077 .2154948 .7688802 .19010417 .75 .16210938 C .7311198 .13476563 .71028646 .10904948 .6875 .08496094 C .66536459 .060872396 .64160159 .040690107 .61621096 .024414063 C .5908203 .0081380209 .5644531 0 .5371094 0 C .5279948 0 .5188802 .0009765625 .5097656 .0029296876 C .50130209 .0048828127 .49316407 .008463542 .48535157 .013671875 C .4781901 .018880209 .47233073 .025716147 .46777345 .034179689 C .46321617 .04329427 .4609375 .0546875 .4609375 .068359378 Z "/>
</symbol>
<symbol id="font_3_64">
<path d="M .3108724 0 C .29589845 0 .2828776 .0029296876 .2718099 .0087890629 C .26139323 .0139973959 .2529297 .021158854 .24641927 .030273438 C .23990886 .03938802 .23567708 .049804689 .23372396 .061523439 C .23177083 .07389323 .23242188 .08691406 .23567708 .10058594 C .2376302 .10970052 .24088542 .12174479 .2454427 .13671875 C .25 .15234375 .25455729 .16894531 .2591146 .18652344 C .2643229 .20475261 .26888023 .22265625 .27278648 .24023438 C .27734376 .25846354 .28027345 .2747396 .28157554 .2890625 C .2828776 .30403648 .28222657 .31608073 .2796224 .3251953 C .27701823 .33496095 .27148438 .33984376 .26302085 .33984376 C .25260417 .33984376 .24186199 .33626304 .23079427 .32910157 C .21972656 .32259117 .20833333 .31347657 .19661458 .3017578 C .18554688 .29003907 .17415364 .2763672 .16243489 .2607422 C .15136719 .24576824 .14029949 .23014324 .12923177 .21386719 C .1233724 .19173177 .118489589 .17220052 .114583339 .15527344 C .110677089 .13899739 .10709635 .12402344 .10384115 .11035156 C .10123698 .09733073 .09863281 .08561198 .09602865 .07519531 C .09342448 .06542969 .091145839 .055989583 .08919271 .046875 C .087239589 .040364583 .08138021 .033854169 .071614589 .02734375 C .061848958 .021484375 .051432294 .016601563 .040364587 .0126953129 C .029296875 .0087890629 .019856772 .0068359377 .012044271 .0068359377 C .0035807298 .0068359377 .00000000062088176 .009765625 .001302084 .015625 C .0019531258 .01953125 .0042317716 .028320313 .008138021 .041992189 C .0113932299 .055664064 .015625 .071614589 .020833334 .08984375 C .025390625 .10872396 .030273438 .12858074 .035481775 .14941406 C .040690107 .17024739 .045572919 .19010417 .05013021 .20898438 C .053385419 .22395833 .056966146 .24055989 .0608724 .25878907 C .0641276 .27441407 .06803385 .29264323 .07259115 .31347657 C .07779948 .3343099 .08365885 .35709635 .09016927 .38183595 C .09472656 .3857422 .09928385 .38867188 .10384115 .390625 C .10904948 .39322917 .11425781 .39518229 .11946615 .39648438 C .12467448 .3984375 .13020833 .3997396 .1360677 .40039063 C .14127605 .40039063 .14648438 .4000651 .1516927 .39941407 C .15625 .39876304 .1608073 .39746095 .16536458 .3955078 C .17057292 .39420573 .1751302 .3919271 .17903646 .38867188 C .17708333 .3841146 .17480469 .37760417 .17220052 .36914063 C .16959636 .36132813 .16699219 .3528646 .16438802 .34375 C .16178386 .33333335 .15852864 .32259117 .15462239 .31152345 C .16308594 .3232422 .17252605 .33496095 .1829427 .3466797 C .19401042 .35904948 .20572917 .3701172 .21809896 .3798828 C .2311198 .38964845 .24479167 .39746095 .2591146 .4033203 C .2734375 .40983073 .28808595 .41308595 .3030599 .41308595 C .3154297 .41308595 .3264974 .40950523 .33626304 .40234376 C .34602867 .39518229 .35351563 .38509117 .35872398 .3720703 C .36458335 .35970054 .36783854 .34472657 .3684896 .32714845 C .36979167 .3095703 .36751304 .2903646 .36165367 .26953126 L .35091148 .2265625 C .34765626 .21289063 .34342448 .19661458 .33821617 .17773438 C .33365885 .1595052 .32779948 .13932292 .32063804 .1171875 C .31673179 .102864589 .31510417 .09049479 .31575523 .080078128 C .31705729 .06966146 .32356773 .064453128 .33528648 .064453128 C .34700523 .064453128 .36165367 .071614589 .37923179 .0859375 C .39746095 .100260417 .4156901 .11751302 .43391929 .13769531 C .45214845 .15787761 .46940104 .17838542 .4856771 .19921875 C .5019531 .22070313 .51432296 .23795574 .52278646 .25097657 C .5286458 .2594401 .5341797 .26497398 .539388 .26757813 C .5445964 .27018229 .5485026 .2705078 .55110678 .2685547 C .554362 .26660157 .55598959 .26204429 .55598959 .2548828 C .55598959 .24837239 .55338546 .23990886 .54817709 .22949219 C .5436198 .22037761 .5364583 .20833333 .5266927 .19335938 C .5175781 .17838542 .50651046 .16243489 .4934896 .14550781 C .48046876 .12858074 .46647135 .111328128 .4514974 .09375 C .43652345 .076822917 .42089845 .061197919 .4046224 .046875 C .38834635 .033203126 .3720703 .022135416 .35579429 .013671875 C .34016929 .0045572917 .3251953 0 .3108724 0 Z "/>
</symbol>
<symbol id="font_3_6a">
<path d="M .4313151 .26953126 C .43391929 .2734375 .43717448 .27571617 .44108073 .2763672 C .44563804 .27766929 .44921876 .27734376 .4518229 .27539063 C .4544271 .2734375 .45572917 .27018229 .45572917 .265625 C .45638023 .26106773 .4547526 .2548828 .45084635 .24707031 C .43782554 .22233074 .4205729 .19563802 .39908854 .16699219 C .37825523 .13834636 .35611979 .111328128 .33268229 .0859375 C .30924479 .061197919 .28645835 .040690107 .2643229 .024414063 C .2421875 .0081380209 .22363281 0 .20865885 0 C .18717449 0 .16927083 .004231771 .1549479 .0126953129 C .14062499 .021158854 .12923177 .03157552 .12076823 .043945314 C .11295573 .056315107 .107421878 .06966146 .104166667 .083984378 C .10091146 .098958339 .0999349 .11263021 .10123698 .125 C .10188802 .13541667 .104166667 .15397136 .108072917 .18066406 C .111979167 .20800781 .1171875 .23925781 .123697917 .27441407 C .13020833 .31022135 .13736978 .34830729 .14518228 .38867188 C .15364583 .4296875 .16243489 .46907554 .17154947 .50683596 C .16048177 .5055339 .14941405 .50423178 .13834635 .5029297 C .12727864 .5016276 .1171875 .50097659 .108072917 .50097659 C .087239589 .50097659 .067708339 .5032552 .049479166 .5078125 C .030598956 .5130208 .01660156 .5179036 .0074869769 .52246096 C .0022786435 .5250651 -.000000002483527 .5286458 .0006510392 .5332031 C .0013020808 .53841146 .003255206 .54329428 .006510414 .54785159 C .009765622 .5530599 .013997394 .5572917 .019205727 .5605469 C .023763018 .5644531 .02799479 .56640627 .03190104 .56640627 C .044270833 .5651042 .057617189 .56380209 .0719401 .5625 C .08626302 .56184896 .10188802 .56184896 .1188151 .5625 C .13118489 .56315109 .14290364 .5641276 .15397135 .5654297 C .1656901 .56673178 .17708333 .5683594 .18815103 .5703125 C .19661458 .6015625 .20475261 .62858077 .2125651 .6513672 C .22102864 .6748047 .22851563 .69108077 .23502603 .7001953 C .23697917 .7034505 .24121094 .7060547 .24772135 .7080078 C .2548828 .710612 .26236979 .71223959 .27018229 .7128906 C .27799479 .7141927 .28548179 .7141927 .29264323 .7128906 C .2998047 .71223959 .30501304 .70996096 .30826823 .7060547 C .31152345 .7008464 .31282554 .6875 .31217448 .6660156 C .31152345 .64453127 .30794273 .6171875 .30143229 .5839844 C .32877604 .5839844 .3528646 .58235678 .3736979 .57910159 C .39518229 .5764974 .41341148 .5732422 .4283854 .56933596 C .44335938 .56608077 .45540367 .5625 .46451823 .55859377 C .4736328 .55533859 .48046876 .5530599 .48502604 .5517578 C .48958335 .55045577 .49186198 .5472005 .49186198 .5419922 C .49251304 .5367839 .49153648 .53125 .48893229 .5253906 C .48697917 .5201823 .48339845 .515625 .4781901 .51171877 C .47298179 .5078125 .4671224 .50651046 .46061198 .5078125 C .45410157 .50846359 .4466146 .5097656 .43815104 .51171877 C .43033854 .5136719 .4205729 .5152995 .40885417 .51660159 C .39778648 .5179036 .3844401 .51920577 .3688151 .5205078 C .3531901 .5218099 .33496095 .52246096 .3141276 .52246096 C .31022135 .52246096 .30566407 .52213546 .30045573 .5214844 C .29589845 .5214844 .29101563 .5214844 .28580729 .5214844 C .28320313 .5110677 .28059898 .50065109 .27799479 .49023438 C .27604167 .48046876 .27311198 .4700521 .26920573 .45898438 C .2607422 .43294273 .25097657 .4046224 .23990885 .37402345 C .23014324 .34733073 .21842449 .31673179 .2047526 .28222657 C .19108074 .24772136 .17578125 .2109375 .15885416 .171875 C .1549479 .1438802 .15527343 .122395839 .15983072 .107421878 C .16503905 .09309896 .17122396 .08268229 .1783854 .076171878 C .18684896 .069010417 .19726563 .065104167 .2096354 .064453128 C .21940105 .06315104 .2311198 .06640625 .24479166 .07421875 C .2591146 .08268229 .27376304 .09375 .28873698 .107421878 C .30371095 .12109375 .3186849 .1360677 .33365885 .15234375 C .34928385 .1686198 .36360679 .18457031 .3766276 .20019531 C .38964845 .21582031 .40104167 .2298177 .41080729 .2421875 C .4205729 .25520835 .42740885 .2643229 .4313151 .26953126 Z "/>
</symbol>
<symbol id="font_3_5e">
<path d="M .5136719 .234375 C .5182292 .23958333 .52278646 .2421875 .52734377 .2421875 C .53255209 .24283855 .5364583 .24153646 .5390625 .23828125 C .5423177 .23567708 .5436198 .23144531 .54296877 .22558594 C .54296877 .21972656 .54036459 .21321614 .53515627 .20605469 C .52278646 .18912761 .50846359 .17154949 .4921875 .15332031 C .47591148 .13574219 .45833335 .118489589 .43945313 .1015625 C .42122398 .084635417 .40266929 .0686849 .38378907 .053710939 C .36490885 .03873698 .3466797 .026367188 .32910157 .016601563 C .3095703 .005533854 .29296876 0 .27929688 0 C .26627604 0 .25325523 .008463542 .24023438 .025390625 C .22851563 .040364583 .22265625 .056315107 .22265625 .07324219 C .2233073 .09082031 .22721355 .11263021 .234375 .13867188 C .2389323 .15494792 .24511719 .17415364 .2529297 .19628906 C .26139323 .21907552 .26790367 .24088542 .27246095 .26171876 C .27766929 .2825521 .27929688 .30013023 .27734376 .31445313 C .27539063 .3294271 .2669271 .33691407 .25195313 .33691407 C .24153646 .33691407 .23014324 .33333335 .21777344 .32617188 C .20605469 .3190104 .19401042 .3095703 .18164063 .29785157 C .16992188 .28678385 .15852864 .27408854 .14746094 .25976563 C .13639324 .2454427 .12662761 .23144531 .11816406 .21777344 C .11295573 .19238281 .1077474 .1673177 .10253906 .14257813 C .09798177 .12174479 .09309896 .098958339 .087890628 .07421875 C .083333339 .050130208 .07877604 .028645834 .07421875 .009765625 C .0703125 .0065104167 .06608073 .004231771 .061523439 .0029296876 C .056966146 .0016276041 .052734376 .0009765625 .048828126 .0009765625 C .044270833 .0009765625 .039713544 .0013020834 .03515625 .001953125 C .029947916 .0032552083 .025065104 .0052083337 .020507813 .0078125 C .016601563 .010416667 .0126953129 .0139973959 .0087890629 .018554688 C .0048828127 .022460938 .001953125 .027994791 0 .03515625 C .029296875 .15559896 .052408857 .25227867 .06933594 .3251953 C .08626302 .39811198 .09928385 .45377604 .10839844 .4921875 C .1188151 .53776046 .12597656 .56933596 .12988281 .58691409 C .13183594 .5992839 .13346355 .6113281 .13476563 .6230469 C .1360677 .63346359 .13671875 .64420577 .13671875 .65527346 C .13671875 .6663411 .13574219 .6764323 .13378906 .6855469 C .13899739 .68880209 .14453125 .69140627 .15039063 .6933594 C .15690105 .6953125 .16308594 .6969401 .16894531 .6982422 C .17610677 .7001953 .18326824 .70182296 .19042969 .703125 C .19759114 .70442709 .20410156 .7050781 .20996094 .7050781 C .21516927 .7050781 .22005208 .70442709 .22460938 .703125 C .22916667 .70247396 .23209636 .7005208 .23339844 .6972656 C .23730469 .69401046 .2389323 .6875 .23828125 .6777344 C .23828125 .66796877 .2376302 .6578776 .23632813 .64746096 C .23372396 .6350911 .23079427 .6217448 .22753906 .6074219 C .21386719 .5546875 .1985677 .5032552 .18164063 .453125 C .16471355 .40364585 .14908855 .35058595 .13476563 .2939453 C .14322917 .30696617 .15332031 .3203125 .16503906 .33398438 C .17675781 .34765626 .18945313 .36002604 .203125 .37109376 C .21744792 .3828125 .23242188 .3922526 .24804688 .39941407 C .26367188 .40722657 .28027345 .4111328 .29785157 .4111328 C .30696617 .4111328 .3154297 .40950523 .3232422 .40625 C .33170573 .40364585 .3388672 .39876304 .34472657 .39160157 C .35123698 .38509117 .35611979 .37597657 .359375 .3642578 C .36263023 .3531901 .36393229 .33919273 .36328126 .32226563 C .36328126 .31184898 .36197917 .30110679 .359375 .29003907 C .35742188 .27897135 .3544922 .26660157 .35058595 .2529297 C .3466797 .23990886 .34147135 .22526042 .33496095 .20898438 C .32910157 .19270833 .3219401 .17382813 .31347657 .15234375 C .3076172 .1373698 .3030599 .12467448 .2998047 .11425781 C .29654948 .10384115 .29720054 .09472656 .3017578 .08691406 C .3076172 .0764974 .3190104 .07389323 .3359375 .07910156 C .35351563 .08496094 .37955729 .10188802 .4140625 .12988281 C .421875 .13639324 .43066407 .14453125 .4404297 .15429688 C .4501953 .1640625 .4596354 .17382813 .46875 .18359375 C .4778646 .19401042 .48632813 .20377605 .49414063 .21289063 C .5019531 .2220052 .50846359 .22916667 .5136719 .234375 Z "/>
</symbol>
<use xlink:href="#font_3_49" transform="matrix(97.033489,0,0,-97.033489,.18672371,96.97597)" fill="#333333"/>
<use xlink:href="#font_3_57" transform="matrix(97.033489,0,0,-97.033489,49.268613,79.82454)" fill="#333333"/>
<use xlink:href="#font_3_63" transform="matrix(97.033489,0,0,-97.033489,92.57047,80.677379)" fill="#333333"/>
<use xlink:href="#font_3_57" transform="matrix(97.033489,0,0,-97.033489,161.17104,79.82454)" fill="#333333"/>
<use xlink:href="#font_3_64" transform="matrix(97.033489,0,0,-97.033489,203.01992,80.77213)" fill="#333333"/>
<use xlink:href="#font_3_6a" transform="matrix(97.033489,0,0,-97.033489,242.97342,80.58262)" fill="#333333"/>
<use xlink:href="#font_3_5e" transform="matrix(97.033489,0,0,-97.033489,278.1901,80.29834)" fill="#333333"/>
<use xlink:href="#font_3_57" transform="matrix(97.033489,0,0,-97.033489,322.7236,79.82454)" fill="#333333"/>
<g id="Layer-1" data-name="P">
</g>
<symbol id="font_4_26">
<path d="M .416 .79 C .4746667 .79 .5293334 .77966669 .58000007 .759 C .63066676 .7383334 .6746667 .71000006 .7120001 .674 C .7493334 .638 .77866676 .59566667 .8000001 .547 C .8213334 .49833334 .8320001 .44566668 .8320001 .389 C .8320001 .335 .8210001 .28433336 .7990001 .23700002 C .77766677 .18966668 .7483334 .14833334 .711 .113000009 C .6736667 .07833334 .62966677 .05066667 .57900008 .030000002 C .52833339 .010000001 .474 0 .416 0 C .358 0 .30366669 .010000001 .253 .030000002 C .20233333 .05066667 .15833335 .07833334 .12100001 .113000009 C .08366668 .14833334 .05400001 .18966668 .032 .23700002 C .010666669 .28433336 .0000000037252905 .335 .0000000037252905 .389 C .0000000037252905 .44566668 .010666669 .49833334 .032 .547 C .053333343 .59566667 .08266667 .638 .120000008 .674 C .15733335 .71000006 .20133335 .7383334 .252 .759 C .30266667 .77966669 .35733334 .79 .416 .79 M .416 .055000005 C .46000005 .055000005 .49933339 .06266667 .53400006 .078 C .5693334 .093333337 .5993334 .11533334 .6240001 .14400001 C .6493334 .17266667 .66866669 .20733334 .68200007 .24800001 C .6953334 .28933335 .7020001 .33533336 .7020001 .386 C .7020001 .43933336 .6953334 .4873334 .68200007 .53000006 C .66866669 .5733333 .6496667 .6100001 .62500008 .64000007 C .6003334 .6706667 .5703334 .69400009 .535 .71000006 C .4996667 .7266667 .46000005 .73499998 .416 .735 C .37199999 .73499998 .33233334 .7266667 .297 .71000006 C .2616667 .69400009 .23166669 .6706667 .207 .64000007 C .18233335 .6100001 .16333336 .5733333 .15000002 .53000006 C .13666667 .4873334 .13000001 .43933336 .13000001 .386 C .13000001 .33533336 .13666667 .28933335 .15000002 .24800001 C .16333336 .20733334 .18233335 .17266667 .207 .14400001 C .23166669 .11533334 .2616667 .093333337 .297 .078 C .33233334 .06266667 .37199999 .055000005 .416 .055000005 Z "/>
</symbol>
<symbol id="font_4_2d">
<path d="M .649 0 L .17400001 .62600007 L .17 .62600007 L .17 .19900002 C .17 .16566669 .171 .13933335 .17300001 .120000008 C .17566669 .100666668 .18033333 .085666667 .187 .075 C .19433336 .06433334 .20433335 .05733334 .21700002 .054000006 C .23033335 .05066667 .24766667 .04866667 .269 .048000006 L .269 .010000001 L 0 .010000001 L 0 .048000006 C .023333336 .04866667 .042000008 .05066667 .056 .054000006 C .07066667 .058000003 .082 .065000008 .09 .075 C .098 .085 .10333333 .09900001 .106000009 .117000009 C .108666669 .13566669 .10999999 .16066669 .11 .19200002 L .11 .598 C .10999999 .626 .108666669 .649 .106000009 .667 C .104 .68566676 .09933334 .70033338 .09200001 .711 C .08533334 .72166666 .075333338 .72900006 .062000008 .73300006 C .04866667 .73766669 .03133334 .7406667 .010000002 .74200007 L .010000002 .78000006 L .20800002 .78000006 L .64500007 .19700001 L .649 .19700001 L .649 .591 C .649 .6236667 .6476667 .6496667 .64500007 .669 C .64300009 .68899998 .6383334 .7043333 .63100007 .71500006 C .6243333 .7256667 .61433336 .7326667 .601 .736 C .58833339 .73933336 .57133337 .7413333 .55 .74200007 L .55 .78000006 L .819 .78000006 L .819 .74200007 C .7956667 .7413333 .7766667 .739 .762 .735 C .74799999 .73166677 .737 .7250001 .72900006 .71500006 C .721 .7050001 .7156667 .6906667 .713 .67200008 C .71033337 .65333339 .70899996 .62866666 .709 .598 L .709 0 L .649 0 Z "/>
</symbol>
<symbol id="font_4_1f">
<path d="M .646 0 L 0 0 L 0 .038000004 C .023333336 .03866667 .042000008 .04066667 .056 .044000005 C .07066667 .047333335 .082 .053000004 .09 .061000006 C .098 .069000009 .10333333 .080333348 .106000009 .095000009 C .108666669 .109666679 .10999999 .12866669 .11 .15200001 L .11 .61800006 C .10999999 .6413334 .108666669 .66 .106000009 .674 C .104 .68866667 .09933334 .70000007 .09200001 .708 C .08533334 .7166667 .075333338 .7223334 .062000008 .725 C .04866667 .7283333 .03133334 .7306667 .010000002 .73200008 L .010000002 .77000007 L .314 .77000007 L .314 .73200008 C .29266668 .7313333 .27533335 .72933337 .26200003 .726 C .24933334 .7226667 .23933335 .7166667 .23200001 .708 C .22533335 .69933339 .22066669 .6873334 .21800001 .67200008 C .21600002 .6566667 .21500002 .6363334 .21500002 .611 L .21500002 .18 C .21500002 .15200001 .21766669 .12900001 .223 .11100001 C .22900002 .09366667 .2386667 .080000009 .25200004 .07 C .266 .06066667 .28433336 .054 .30700005 .05 C .3296667 .046666668 .35833336 .045 .393 .045 C .43100003 .045 .46300007 .047000003 .48900003 .051000004 C .51500007 .05566667 .5366667 .06333333 .554 .074 C .572 .08533334 .586 .10066667 .596 .120000008 C .6066666 .14 .6156667 .16566669 .623 .19700001 L .661 .19700001 L .646 0 Z "/>
</symbol>
<symbol id="font_4_1d">
<path d="M .21500002 .18900001 C .21500002 .15566668 .21633335 .12933335 .219 .11000001 C .22166668 .090666677 .22666668 .075666669 .23400001 .065000008 C .242 .05433334 .25300003 .047333335 .26700003 .044000005 C .2816667 .04066667 .3006667 .03866667 .324 .038000004 L .324 0 L 0 0 L 0 .038000004 C .023333336 .03866667 .042000008 .04066667 .056 .044000005 C .07066667 .048000006 .082 .055000005 .09 .065000008 C .098 .07500001 .10333333 .08900001 .106000009 .10700001 C .108666669 .12566668 .10999999 .15066667 .11 .18200001 L .11 .588 C .10999999 .616 .108666669 .639 .106000009 .657 C .104 .67566677 .09933334 .69033339 .09200001 .70100006 C .08533334 .71166667 .075333338 .71900007 .062000008 .72300007 C .04866667 .7276667 .03133334 .7306667 .010000002 .73200008 L .010000002 .77000007 L .314 .77000007 L .314 .73200008 C .29266668 .7313333 .27533335 .7286667 .26200003 .72400006 C .24933334 .71933338 .23933335 .71133336 .23200001 .70000007 C .22533335 .6893334 .22066669 .67433336 .21800001 .65500006 C .21600002 .63566669 .21500002 .61100009 .21500002 .58100005 L .21500002 .18900001 Z "/>
</symbol>
<symbol id="font_4_20">
<path d="M .21500002 .423 C .25100003 .423 .281 .42500005 .305 .42900003 C .32966668 .4336667 .349 .44066669 .36300005 .45000003 C .37766669 .45933334 .388 .47133336 .394 .48600004 C .4006667 .5006667 .40400005 .51800009 .40400005 .53800007 L .439 .53800007 L .439 .26500003 L .40400005 .26500003 C .40400005 .285 .40100003 .30233336 .39500005 .317 C .3896667 .33166669 .3796667 .34366668 .365 .35300002 C .35100005 .36300005 .3316667 .37033335 .30700005 .37500004 C .28300003 .38033334 .25233338 .38300003 .21500002 .38300003 L .21500002 .157 C .21500002 .135 .21766669 .116666678 .223 .102000009 C .22833336 .088 .23733334 .07633334 .25 .067 C .26333336 .058333339 .28066669 .052 .302 .048 C .32333333 .044666668 .34966669 .043 .38100005 .043 C .41633336 .043 .44633333 .045333338 .47100003 .05 C .49566666 .055333336 .51633337 .064 .533 .076000008 C .5496667 .088 .563 .10366667 .573 .123 C .583 .143 .5913333 .16766668 .598 .19700001 L .63600006 .19700001 L .621 0 L 0 0 L 0 .038000004 C .023333336 .03866667 .042000008 .04066667 .056 .044000005 C .07066667 .047333335 .082 .053000004 .09 .061000006 C .098 .069000009 .10333333 .080333348 .106000009 .095000009 C .108666669 .109666679 .10999999 .12866669 .11 .15200001 L .11 .61800006 C .10999999 .6413334 .108666669 .66 .106000009 .674 C .104 .68866667 .09933334 .70000007 .09200001 .708 C .08533334 .7166667 .075333338 .7223334 .062000008 .725 C .04866667 .7283333 .03133334 .7306667 .010000002 .73200008 L .010000002 .77000007 L .588 .77000007 L .597 .59400007 L .56200006 .59400007 C .558 .6206667 .55133339 .6423333 .542 .65900006 C .5333333 .6763334 .52099999 .69000008 .505 .70000007 C .48966668 .71000006 .47000004 .717 .44600005 .721 C .42200003 .7250001 .39300005 .72700008 .35900004 .72700008 L .23200001 .72700008 C .22066669 .72700008 .21500002 .7213333 .21500002 .71000006 L .21500002 .423 Z "/>
</symbol>
<symbol id="font_4_5c">
<path d="M 0 .065000008 C 0 .083666678 .006333334 .09933334 .019000002 .112 C .03166667 .12466667 .047000003 .13100001 .065 .13100001 C .083666678 .13100001 .099333349 .12466667 .112 .112 C .12466667 .09933334 .13100001 .083666678 .13100001 .065000008 C .13100001 .047000003 .12466667 .03166667 .112 .019000002 C .099333349 .006333334 .083666678 0 .065 0 C .047000003 0 .03166667 .006333334 .019000002 .019000002 C .006333334 .03166667 0 .047000003 0 .065000008 Z "/>
</symbol>
<use xlink:href="#font_4_26" transform="matrix(42.899377,0,0,-42.899377,107.31415,115.22724)" fill="#cc577e"/>
<use xlink:href="#font_4_2d" transform="matrix(42.899377,0,0,-42.899377,145.57306,115.22724)" fill="#cc577e"/>
<use xlink:href="#font_4_1f" transform="matrix(42.899377,0,0,-42.899377,182.4595,114.79825)" fill="#cc577e"/>
<use xlink:href="#font_4_1d" transform="matrix(42.899377,0,0,-42.899377,211.83979,114.79825)" fill="#cc577e"/>
<use xlink:href="#font_4_2d" transform="matrix(42.899377,0,0,-42.899377,227.83774,115.22724)" fill="#cc577e"/>
<use xlink:href="#font_4_20" transform="matrix(42.899377,0,0,-42.899377,264.7242,114.79825)" fill="#cc577e"/>
<use xlink:href="#font_4_5c" transform="matrix(42.899377,0,0,-42.899377,295.00544,115.22724)" fill="#cc577e"/>
<use xlink:href="#font_4_2d" transform="matrix(42.899377,0,0,-42.899377,303.62577,115.22724)" fill="#cc577e"/>
<use xlink:href="#font_4_1f" transform="matrix(42.899377,0,0,-42.899377,340.51219,114.79825)" fill="#cc577e"/>
</g>
</g>
</svg>
