<?xml version="1.0" encoding="UTF-8" standalone="no"?>
<!DOCTYPE svg PUBLIC "-//W3C//DTD SVG 1.1//EN" "http://www.w3.org/Graphics/SVG/1.1/DTD/svg11.dtd">
<svg width="100%" height="100%" viewBox="0 0 13492 3696" version="1.1" xmlns="http://www.w3.org/2000/svg" xmlns:xlink="http://www.w3.org/1999/xlink" xml:space="preserve" xmlns:serif="http://www.serif.com/" style="fill-rule:evenodd;clip-rule:evenodd;stroke-linejoin:round;stroke-miterlimit:2;">
    <g transform="matrix(4.16667,0,0,4.16667,0,0)">
        <path d="M1258.69,334.77C1258.69,378.581 1270.03,400.486 1292.72,400.486C1311.37,400.486 1333.39,395.321 1358.78,384.984L1358.78,275.456C1336.31,269.616 1314.29,266.693 1292.72,266.693C1281.04,266.693 1272.45,271.527 1266.94,281.185C1261.44,290.847 1258.69,308.709 1258.69,334.77ZM1244.87,395.263C1240.83,385.942 1237.96,376.39 1236.28,366.617C1234.59,356.844 1233.75,345.838 1233.75,333.59C1233.75,321.347 1234.47,310.336 1235.94,300.563C1237.4,290.79 1240.04,281.185 1243.86,271.749C1252.17,251.754 1268.46,241.754 1292.72,241.754C1301.03,241.754 1311.6,242.992 1324.4,245.461C1337.21,247.937 1348.67,251.19 1358.78,255.235L1358.78,158.85L1383.38,158.85L1383.38,423.403L1365.52,423.403L1358.78,403.52C1353.16,407.564 1343.33,412.23 1329.29,417.506C1315.25,422.787 1302.72,425.425 1291.71,425.425C1280.7,425.425 1271.16,422.73 1263.07,417.337C1254.98,411.945 1248.91,404.588 1244.87,395.263Z" style="fill:rgb(185,30,79);fill-rule:nonzero;"/>
        <path d="M1445.39,322.974L1520.88,322.974C1535.03,322.974 1542.11,317.471 1542.11,306.461C1542.11,289.162 1539.58,278.436 1534.53,274.276C1529.47,270.121 1517.62,268.041 1498.97,268.041C1475.83,268.041 1462.01,270.4 1457.52,275.118C1451.23,281.858 1447.63,289.273 1446.73,297.361C1445.83,305.449 1445.39,313.991 1445.39,322.974ZM1420.45,333.085C1420.45,313.316 1421.79,297.419 1424.49,285.398C1427.19,273.381 1432.07,264.281 1439.15,258.099C1446.23,251.922 1454.09,247.878 1462.74,245.967C1471.39,244.061 1482.63,243.103 1496.44,243.103C1510.26,243.103 1520.65,243.666 1527.62,244.788C1534.58,245.914 1541.43,248.495 1548.17,252.539C1554.92,256.583 1559.74,262.986 1562.67,271.749C1565.58,280.511 1567.05,292.085 1567.05,306.461C1567.05,333.874 1551.66,347.576 1520.88,347.576L1445.39,347.576C1445.39,368.471 1447.75,382.457 1452.46,389.534C1457.18,396.611 1466.17,400.149 1479.42,400.149C1520.31,400.149 1548.4,399.028 1563.68,396.779L1563.68,415.652C1541.43,421.945 1513.35,425.088 1479.42,425.088C1456.73,425.088 1441.23,418.575 1432.92,405.542C1424.6,392.514 1420.45,368.36 1420.45,333.085Z" style="fill:rgb(185,30,79);fill-rule:nonzero;"/>
        <path d="M1583.9,244.45L1611.2,244.45L1667.14,386.669L1723.76,244.45L1751.05,244.45L1679.27,423.403L1654.33,423.403L1583.9,244.45Z" style="fill:rgb(185,30,79);fill-rule:nonzero;"/>
        <path d="M1792.85,322.974L1868.34,322.974C1882.49,322.974 1889.57,317.471 1889.57,306.461C1889.57,289.162 1887.04,278.436 1881.99,274.276C1876.93,270.121 1865.08,268.041 1846.43,268.041C1823.29,268.041 1809.47,270.4 1804.98,275.118C1798.69,281.858 1795.09,289.273 1794.2,297.361C1793.29,305.449 1792.85,313.991 1792.85,322.974ZM1767.91,333.085C1767.91,313.316 1769.26,297.419 1771.95,285.398C1774.65,273.381 1779.54,264.281 1786.61,258.099C1793.69,251.922 1801.55,247.878 1810.2,245.967C1818.85,244.061 1830.09,243.103 1843.9,243.103C1857.72,243.103 1868.11,243.666 1875.08,244.788C1882.04,245.914 1888.9,248.495 1895.64,252.539C1902.38,256.583 1907.2,262.986 1910.13,271.749C1913.04,280.511 1914.51,292.085 1914.51,306.461C1914.51,333.874 1899.12,347.576 1868.34,347.576L1792.85,347.576C1792.85,368.471 1795.21,382.457 1799.92,389.534C1804.64,396.611 1813.63,400.149 1826.88,400.149C1867.77,400.149 1895.86,399.028 1911.14,396.779L1911.14,415.652C1888.9,421.945 1860.81,425.088 1826.88,425.088C1804.19,425.088 1788.69,418.575 1780.38,405.542C1772.06,392.514 1767.91,368.36 1767.91,333.085Z" style="fill:rgb(185,30,79);fill-rule:nonzero;"/>
        <path d="M1948.21,359.708L1948.21,159.524L1973.15,159.524L1973.15,359.708C1973.15,373.415 1974.71,382.909 1977.86,388.186C1981.01,393.467 1985.84,396.896 1992.36,398.464C2010.78,403.183 2020.78,405.542 2022.35,405.542L2022.35,423.403L1992.69,423.403C1963.04,423.403 1948.21,402.171 1948.21,359.708Z" style="fill:rgb(185,30,79);fill-rule:nonzero;"/>
        <path d="M2061.95,284.555C2059.59,289.5 2057.68,296.182 2056.22,304.607C2054.75,313.032 2054.03,324.101 2054.03,337.802C2054.03,351.509 2055.09,362.741 2057.23,371.503C2059.36,380.266 2063.07,386.669 2068.35,390.713C2073.63,394.757 2079.02,397.343 2084.53,398.464C2090.03,399.591 2097.89,400.149 2108.12,400.149C2118.34,400.149 2126.32,399.591 2132.05,398.464C2137.78,397.343 2143.17,394.705 2148.22,390.545C2153.28,386.39 2156.82,379.987 2158.84,371.335C2160.86,362.689 2161.87,350.725 2161.87,335.443C2161.87,320.168 2161.03,307.924 2159.34,298.709C2157.66,289.5 2154.34,282.591 2149.4,277.983C2144.46,273.381 2139.12,270.516 2133.39,269.389C2127.67,268.268 2119.86,267.704 2109.97,267.704C2100.08,267.704 2092.67,268.041 2087.73,268.715C2082.79,269.389 2077.84,270.964 2072.9,273.434C2067.96,275.908 2064.31,279.615 2061.95,284.555ZM2108.29,425.088C2078.4,425.088 2057.74,418.464 2046.28,405.205C2034.82,391.951 2029.09,368.133 2029.09,333.758C2029.09,299.383 2034.82,275.624 2046.28,262.481C2057.74,249.337 2078.4,242.765 2108.29,242.765C2138.17,242.765 2158.72,249.453 2169.96,262.817C2181.19,276.188 2186.81,300.173 2186.81,334.77C2186.81,369.371 2181.19,393.072 2169.96,405.879C2158.72,418.685 2138.17,425.088 2108.29,425.088Z" style="fill:rgb(185,30,79);fill-rule:nonzero;"/>
        <path d="M2314.54,401.161C2326.22,401.161 2334.81,396.332 2340.32,386.669C2345.82,377.012 2348.57,359.15 2348.57,333.085C2348.57,289.273 2337.23,267.367 2314.54,267.367C2295.66,267.367 2273.53,272.538 2248.14,282.87L2248.14,392.399C2270.61,398.243 2292.74,401.161 2314.54,401.161ZM2223.88,514.397L2223.88,244.45L2241.74,244.45L2248.14,264.334C2253.76,260.29 2263.65,255.63 2277.8,250.348C2291.96,245.072 2304.54,242.428 2315.55,242.428C2326.55,242.428 2336.1,245.125 2344.19,250.517C2352.28,255.909 2358.35,263.212 2362.39,272.422C2369.81,289.726 2373.51,309.946 2373.51,333.085C2373.51,378.023 2364.08,406.442 2345.2,418.348C2336.89,423.514 2327.62,426.1 2317.4,426.1C2307.17,426.1 2295.61,424.862 2282.69,422.392C2269.77,419.923 2258.25,416.663 2248.14,412.619L2248.14,514.397L2223.88,514.397Z" style="fill:rgb(185,30,79);fill-rule:nonzero;"/>
        <path d="M2428.78,322.974L2504.27,322.974C2518.42,322.974 2525.5,317.471 2525.5,306.461C2525.5,289.162 2522.97,278.436 2517.92,274.276C2512.86,270.121 2501.01,268.041 2482.36,268.041C2459.22,268.041 2445.4,270.4 2440.91,275.118C2434.62,281.858 2431.02,289.273 2430.13,297.361C2429.23,305.449 2428.78,313.991 2428.78,322.974ZM2403.84,333.085C2403.84,313.316 2405.19,297.419 2407.88,285.398C2410.58,273.381 2415.47,264.281 2422.54,258.099C2429.62,251.922 2437.48,247.878 2446.14,245.967C2454.78,244.061 2466.02,243.103 2479.84,243.103C2493.65,243.103 2504.04,243.666 2511.01,244.788C2517.97,245.914 2524.83,248.495 2531.57,252.539C2538.31,256.583 2543.14,262.986 2546.06,271.749C2548.98,280.511 2550.44,292.085 2550.44,306.461C2550.44,333.874 2535.05,347.576 2504.27,347.576L2428.78,347.576C2428.78,368.471 2431.14,382.457 2435.86,389.534C2440.58,396.611 2449.56,400.149 2462.82,400.149C2503.71,400.149 2531.79,399.028 2547.07,396.779L2547.07,415.652C2524.83,421.945 2496.74,425.088 2462.82,425.088C2440.12,425.088 2424.62,418.575 2416.31,405.542C2408,392.514 2403.84,368.36 2403.84,333.085Z" style="fill:rgb(185,30,79);fill-rule:nonzero;"/>
        <path d="M2584.14,423.403L2584.14,244.45L2601.66,244.45L2609.08,267.03C2626.15,256.699 2636.93,250.801 2641.43,249.337C2645.92,247.878 2649.97,246.588 2653.56,245.461C2660.3,243.44 2668.95,242.428 2679.51,242.428C2690.07,242.428 2697.15,243.329 2700.75,245.125L2700.75,269.726C2695.35,268.378 2687.71,267.704 2677.83,267.704C2667.94,267.704 2659.13,268.605 2651.37,270.4C2643.62,272.201 2637.44,274.107 2632.84,276.129C2628.23,278.151 2620.31,281.858 2609.08,287.251L2609.08,423.403L2584.14,423.403Z" style="fill:rgb(185,30,79);fill-rule:nonzero;"/>
        <path d="M2720.96,302.753L2720.96,287.251C2720.96,272.649 2724.55,261.586 2731.75,254.055C2738.94,246.53 2752.02,242.765 2771.01,242.765C2789.99,242.765 2818.13,244.566 2855.43,248.158L2855.43,267.367L2767.47,267.367C2757.13,267.367 2750.84,269.279 2748.6,273.096C2746.8,276.019 2745.9,280.737 2745.9,287.251L2745.9,302.753C2745.9,311.742 2748.04,317.245 2752.31,319.267C2755.9,321.068 2760.95,321.963 2767.47,321.963L2820.72,321.963C2834.87,321.963 2845.71,325.955 2853.24,333.927C2860.77,341.904 2864.53,352.41 2864.53,365.438L2864.53,381.951C2864.53,398.581 2860.49,409.923 2852.4,415.989C2844.31,422.055 2833.75,425.088 2820.72,425.088C2799.82,425.088 2769.04,422.956 2728.38,418.685L2728.38,400.149L2820.72,400.149C2820.72,399.928 2821.33,399.928 2822.57,400.149C2823.8,400.376 2825.38,400.149 2827.29,399.476C2829.2,398.801 2831.05,398.017 2832.85,397.116C2837.34,394.873 2839.59,389.818 2839.59,381.951L2839.59,365.438C2839.59,359.15 2838.19,354.484 2835.38,351.452C2832.57,348.419 2827.68,346.902 2820.72,346.902L2767.47,346.902C2751.07,346.902 2739.21,343.758 2731.92,337.465C2724.61,331.178 2720.96,319.604 2720.96,302.753Z" style="fill:rgb(185,30,79);fill-rule:nonzero;"/>
        <path d="M2896.55,415.652L2896.55,396.442C2896.55,390.829 2899.24,388.017 2904.63,388.017L2922.5,388.017C2928.11,388.017 2930.92,390.829 2930.92,396.442L2930.92,415.652C2930.92,420.823 2928.11,423.403 2922.5,423.403L2904.63,423.403C2899.24,423.403 2896.55,420.823 2896.55,415.652Z" style="fill:rgb(185,30,79);fill-rule:nonzero;"/>
        <path d="M2979.78,423.403L2979.78,244.45L2997.31,244.45L3004.72,265.345C3005.4,265.124 3007.87,263.718 3012.14,261.132C3016.4,258.552 3019.05,257.036 3020.06,256.583C3021.07,256.135 3023.48,254.845 3027.3,252.707C3031.12,250.575 3033.82,249.284 3035.39,248.832C3036.96,248.384 3039.55,247.483 3043.14,246.135C3046.73,244.788 3049.66,243.892 3051.9,243.44C3059.09,242.091 3065.38,241.418 3070.78,241.418C3087.85,241.418 3101.33,247.036 3111.22,258.268C3121.1,269.505 3126.05,282.985 3126.05,298.709L3126.05,423.403L3101.11,423.403L3101.11,298.709C3101.11,288.151 3098.3,280.121 3092.68,274.613C3087.06,269.11 3079.88,266.356 3071.11,266.356C3062.35,266.356 3054.15,267.256 3046.51,269.052C3038.87,270.853 3032.75,272.707 3028.15,274.613C3023.54,276.524 3015.73,280.174 3004.72,285.566L3004.72,423.403L2979.78,423.403Z" style="fill:rgb(185,30,79);fill-rule:nonzero;"/>
        <path d="M3163.12,359.708L3163.12,159.524L3188.05,159.524L3188.05,359.708C3188.05,373.415 3189.62,382.909 3192.77,388.186C3195.92,393.467 3200.74,396.896 3207.26,398.464C3225.68,403.183 3235.68,405.542 3237.26,405.542L3237.26,423.403L3207.6,423.403C3177.94,423.403 3163.12,402.171 3163.12,359.708Z" style="fill:rgb(185,30,79);fill-rule:nonzero;"/>
        <path d="M1227.01,677.352L1227.01,577.26L1239.48,577.26L1239.48,677.352C1239.48,684.206 1240.26,688.953 1241.84,691.591C1243.41,694.232 1245.82,695.946 1249.08,696.73C1258.29,699.089 1263.29,700.269 1264.08,700.269L1264.08,709.2L1249.25,709.2C1234.42,709.2 1227.01,698.584 1227.01,677.352Z" style="fill:rgb(185,30,79);fill-rule:nonzero;"/>
        <path d="M1279.92,658.985L1317.66,658.985C1324.74,658.985 1328.28,656.234 1328.28,650.728C1328.28,642.08 1327.02,636.716 1324.49,634.636C1321.96,632.559 1316.03,631.519 1306.71,631.519C1295.14,631.519 1288.23,632.698 1285.98,635.057C1282.84,638.427 1281.04,642.134 1280.59,646.178C1280.14,650.223 1279.92,654.494 1279.92,658.985ZM1267.45,664.041C1267.45,654.157 1268.12,646.208 1269.47,640.197C1270.82,634.188 1273.26,629.639 1276.8,626.547C1280.34,623.46 1284.27,621.437 1288.6,620.482C1292.92,619.529 1298.54,619.049 1305.45,619.049C1312.36,619.049 1317.55,619.331 1321.03,619.892C1324.51,620.456 1327.94,621.746 1331.31,623.767C1334.68,625.79 1337.1,628.991 1338.56,633.373C1340.02,637.753 1340.75,643.541 1340.75,650.728C1340.75,664.435 1333.05,671.286 1317.66,671.286L1279.92,671.286C1279.92,681.733 1281.1,688.726 1283.46,692.265C1285.82,695.803 1290.31,697.573 1296.94,697.573C1317.38,697.573 1331.42,697.012 1339.06,695.888L1339.06,705.324C1327.94,708.47 1313.9,710.043 1296.94,710.043C1285.59,710.043 1277.84,706.786 1273.68,700.269C1269.53,693.755 1267.45,681.678 1267.45,664.041Z" style="fill:rgb(185,30,79);fill-rule:nonzero;"/>
        <path d="M1366.7,687.126C1366.7,694.203 1370.01,697.742 1376.64,697.742C1380.68,697.742 1385.82,697.012 1392.06,695.55C1398.29,694.092 1403.54,692.686 1407.81,691.338L1414.05,689.148L1414.05,665.051L1376.64,667.748C1373.27,668.085 1370.77,669.264 1369.14,671.286C1367.51,673.308 1366.7,675.781 1366.7,678.7L1366.7,687.126ZM1357.09,623.093C1369.23,619.723 1383.94,618.039 1401.24,618.039C1408.54,618.039 1414.58,620.173 1419.36,624.441C1424.13,628.712 1426.52,635.226 1426.52,643.988L1426.52,709.2L1417.25,709.2L1414.05,698.416L1411.52,699.595C1396.92,706.672 1385.29,710.211 1376.64,710.211C1370.24,710.211 1364.9,708.247 1360.63,704.313C1356.36,700.382 1354.23,694.935 1354.23,687.968L1354.23,677.689C1354.23,670.838 1356.22,665.388 1360.21,661.344C1364.2,657.3 1369.67,655.278 1376.64,655.278L1414.05,655.278C1414.16,651.571 1414.22,648.791 1414.22,646.937C1414.22,645.084 1414.16,644.101 1414.05,643.988C1414.05,634.778 1409.22,630.17 1399.56,630.17C1389.89,630.17 1375.74,630.844 1357.09,632.193L1357.09,623.093Z" style="fill:rgb(185,30,79);fill-rule:nonzero;"/>
        <path d="M1445.05,709.2L1445.05,619.723L1453.82,619.723L1457.52,631.013C1466.06,625.847 1471.45,622.899 1473.7,622.167C1475.94,621.437 1477.97,620.793 1479.76,620.229C1483.13,619.217 1487.46,618.712 1492.74,618.712C1498.02,618.712 1501.56,619.163 1503.36,620.06L1503.36,632.361C1500.66,631.687 1496.84,631.35 1491.9,631.35C1486.95,631.35 1482.54,631.8 1478.67,632.698C1474.79,633.598 1471.7,634.551 1469.4,635.563C1467.1,636.574 1463.14,638.427 1457.52,641.124L1457.52,709.2L1445.05,709.2Z" style="fill:rgb(185,30,79);fill-rule:nonzero;"/>
        <path d="M1516.83,709.2L1516.83,619.723L1525.6,619.723L1529.3,630.17C1529.64,630.06 1530.88,629.357 1533.01,628.064C1535.14,626.774 1536.47,626.016 1536.97,625.79C1537.48,625.566 1538.68,624.92 1540.59,623.852C1542.5,622.786 1543.85,622.14 1544.64,621.914C1545.42,621.69 1546.72,621.24 1548.51,620.566C1550.31,619.892 1551.77,619.444 1552.9,619.217C1556.49,618.544 1559.64,618.207 1562.33,618.207C1570.87,618.207 1577.61,621.016 1582.55,626.632C1587.49,632.251 1589.97,638.991 1589.97,646.853L1589.97,709.2L1577.5,709.2L1577.5,646.853C1577.5,641.574 1576.09,637.558 1573.28,634.804C1570.47,632.053 1566.88,630.676 1562.5,630.676C1558.12,630.676 1554.02,631.127 1550.2,632.024C1546.38,632.924 1543.32,633.851 1541.02,634.804C1538.71,635.76 1534.81,637.585 1529.3,640.281L1529.3,709.2L1516.83,709.2Z" style="fill:rgb(185,30,79);fill-rule:nonzero;"/>
        <path d="M1612.71,705.324L1612.71,695.719C1612.71,692.913 1614.06,691.506 1616.76,691.506L1625.69,691.506C1628.5,691.506 1629.9,692.913 1629.9,695.719L1629.9,705.324C1629.9,707.91 1628.5,709.2 1625.69,709.2L1616.76,709.2C1614.06,709.2 1612.71,707.91 1612.71,705.324Z" style="fill:rgb(185,30,79);fill-rule:nonzero;"/>
        <path d="M1696.96,687.968C1695.5,681.678 1694.77,673.814 1694.77,664.378C1694.77,654.941 1695.47,647.105 1696.88,640.871C1698.28,634.636 1700.39,629.976 1703.2,626.884C1706.01,623.796 1709.04,621.69 1712.3,620.566C1715.56,619.444 1720.83,618.88 1728.14,618.88C1735.44,618.88 1746.95,620.342 1762.68,623.262L1762.68,632.361C1747.07,631.687 1736,631.35 1729.49,631.35C1722.97,631.35 1718.87,631.632 1717.19,632.193C1715.5,632.756 1713.76,634.046 1711.96,636.068C1708.82,640.002 1707.24,648.959 1707.24,662.945C1707.24,676.931 1708.51,686.199 1711.04,690.749C1713.56,695.298 1717.97,697.573 1724.26,697.573C1734.82,697.573 1745.89,697.126 1757.46,696.225L1763.86,695.719L1763.86,705.156C1753.08,708.189 1739.88,709.816 1724.26,710.043C1719.66,710.043 1715.75,709.479 1712.55,708.357C1709.35,707.236 1706.32,705.129 1703.45,702.039C1700.59,698.95 1698.42,694.26 1696.96,687.968Z" style="fill:rgb(185,30,79);fill-rule:nonzero;"/>
        <path d="M1792.09,639.776C1790.91,642.248 1789.95,645.588 1789.22,649.801C1788.49,654.014 1788.13,659.548 1788.13,666.399C1788.13,673.253 1788.66,678.869 1789.73,683.25C1790.79,687.631 1792.65,690.833 1795.29,692.855C1797.93,694.877 1800.62,696.17 1803.38,696.73C1806.13,697.294 1810.06,697.573 1815.17,697.573C1820.28,697.573 1824.27,697.294 1827.14,696.73C1830,696.17 1832.7,694.85 1835.22,692.77C1837.75,690.693 1839.52,687.492 1840.53,683.166C1841.54,678.842 1842.05,672.861 1842.05,665.22C1842.05,657.582 1841.63,651.461 1840.79,646.853C1839.94,642.248 1838.28,638.794 1835.81,636.49C1833.34,634.188 1830.67,632.756 1827.81,632.193C1824.95,631.632 1821.04,631.35 1816.1,631.35C1811.15,631.35 1807.45,631.519 1804.98,631.856C1802.51,632.193 1800.03,632.98 1797.56,634.214C1795.09,635.453 1793.27,637.306 1792.09,639.776ZM1815.26,710.043C1800.31,710.043 1789.98,706.73 1784.25,700.1C1778.52,693.473 1775.66,681.565 1775.66,664.378C1775.66,647.19 1778.52,635.31 1784.25,628.739C1789.98,622.167 1800.31,618.88 1815.26,618.88C1830.2,618.88 1840.47,622.224 1846.09,628.907C1851.71,635.591 1854.52,647.585 1854.52,664.882C1854.52,682.183 1851.71,694.035 1846.09,700.437C1840.47,706.84 1830.2,710.043 1815.26,710.043Z" style="fill:rgb(185,30,79);fill-rule:nonzero;"/>
        <path d="M1882.15,664.882C1882.15,686.789 1887.83,697.742 1899.17,697.742C1908.5,697.742 1919.5,695.159 1932.2,689.99L1932.2,635.226C1920.96,632.306 1909.96,630.844 1899.17,630.844C1893.33,630.844 1889.03,633.261 1886.28,638.09C1883.53,642.921 1882.15,651.852 1882.15,664.882ZM1875.25,695.129C1873.22,690.469 1871.79,685.693 1870.95,680.806C1870.11,675.92 1869.68,670.418 1869.68,664.293C1869.68,658.171 1870.05,652.667 1870.78,647.78C1871.51,642.893 1872.83,638.09 1874.74,633.373C1878.89,623.376 1887.04,618.376 1899.17,618.376C1903.33,618.376 1908.61,618.994 1915.01,620.229C1921.42,621.466 1927.14,623.093 1932.2,625.116L1932.2,576.922L1944.5,576.922L1944.5,709.2L1935.57,709.2L1932.2,699.258C1929.39,701.28 1924.47,703.613 1917.46,706.251C1910.43,708.892 1904.17,710.211 1898.67,710.211C1893.16,710.211 1888.39,708.863 1884.34,706.167C1880.3,703.47 1877.27,699.793 1875.25,695.129Z" style="fill:rgb(185,30,79);fill-rule:nonzero;"/>
        <path d="M1975.5,658.985L2013.25,658.985C2020.33,658.985 2023.86,656.234 2023.86,650.728C2023.86,642.08 2022.6,636.716 2020.07,634.636C2017.54,632.559 2011.62,631.519 2002.3,631.519C1990.72,631.519 1983.82,632.698 1981.57,635.057C1978.42,638.427 1976.63,642.134 1976.18,646.178C1975.73,650.223 1975.5,654.494 1975.5,658.985ZM1963.03,664.041C1963.03,654.157 1963.71,646.208 1965.06,640.197C1966.4,634.188 1968.85,629.639 1972.39,626.547C1975.92,623.46 1979.86,621.437 1984.18,620.482C1988.5,619.529 1994.12,619.049 2001.03,619.049C2007.94,619.049 2013.13,619.331 2016.62,619.892C2020.1,620.456 2023.53,621.746 2026.9,623.767C2030.27,625.79 2032.68,628.991 2034.14,633.373C2035.6,637.753 2036.33,643.541 2036.33,650.728C2036.33,664.435 2028.64,671.286 2013.25,671.286L1975.5,671.286C1975.5,681.733 1976.68,688.726 1979.04,692.265C1981.4,695.803 1985.89,697.573 1992.52,697.573C2012.97,697.573 2027.01,697.012 2034.65,695.888L2034.65,705.324C2023.53,708.47 2009.48,710.043 1992.52,710.043C1981.17,710.043 1973.42,706.786 1969.27,700.269C1965.11,693.755 1963.03,681.678 1963.03,664.041Z" style="fill:rgb(185,30,79);fill-rule:nonzero;"/>
        <path d="M2052.34,705.324L2052.34,695.719C2052.34,692.913 2053.69,691.506 2056.38,691.506L2065.32,691.506C2068.12,691.506 2069.53,692.913 2069.53,695.719L2069.53,705.324C2069.53,707.91 2068.12,709.2 2065.32,709.2L2056.38,709.2C2053.69,709.2 2052.34,707.91 2052.34,705.324Z" style="fill:rgb(185,30,79);fill-rule:nonzero;"/>
        <path d="M2132.72,648.875L2132.72,641.124C2132.72,633.823 2134.51,628.291 2138.11,624.526C2141.7,620.763 2148.25,618.88 2157.74,618.88C2167.23,618.88 2181.3,619.781 2199.95,621.577L2199.95,631.181L2155.97,631.181C2150.8,631.181 2147.66,632.137 2146.53,634.046C2145.63,635.507 2145.19,637.867 2145.19,641.124L2145.19,648.875C2145.19,653.369 2146.25,656.121 2148.39,657.131C2150.18,658.032 2152.71,658.48 2155.97,658.48L2182.59,658.48C2189.67,658.48 2195.09,660.475 2198.85,664.461C2202.62,668.451 2204.5,673.703 2204.5,680.216L2204.5,688.473C2204.5,696.789 2202.48,702.46 2198.43,705.493C2194.39,708.526 2189.11,710.043 2182.59,710.043C2172.15,710.043 2156.75,708.976 2136.42,706.84L2136.42,697.573L2182.59,697.573C2182.59,697.462 2182.9,697.462 2183.52,697.573C2184.14,697.686 2184.92,697.573 2185.88,697.236C2186.83,696.899 2187.76,696.506 2188.66,696.056C2190.91,694.935 2192.03,692.407 2192.03,688.473L2192.03,680.216C2192.03,677.073 2191.33,674.741 2189.92,673.224C2188.52,671.708 2186.07,670.949 2182.59,670.949L2155.97,670.949C2147.77,670.949 2141.84,669.378 2138.19,666.231C2134.54,663.087 2132.72,657.3 2132.72,648.875Z" style="fill:rgb(185,30,79);fill-rule:nonzero;"/>
        <path d="M2221.35,709.2L2221.35,577.091L2233.82,577.091L2233.82,630.17C2234.16,630.06 2235.39,629.357 2237.53,628.064C2239.66,626.774 2240.98,626.016 2241.49,625.79C2241.99,625.566 2243.2,624.92 2245.11,623.852C2247.02,622.786 2248.37,622.14 2249.15,621.914C2249.94,621.69 2251.23,621.24 2253.03,620.566C2254.82,619.892 2256.29,619.444 2257.41,619.217C2261,618.544 2264.15,618.207 2266.85,618.207C2275.38,618.207 2282.12,621.016 2287.07,626.632C2292.01,632.251 2294.48,638.991 2294.48,646.853L2294.48,709.2L2282.01,709.2L2282.01,646.853C2282.01,641.461 2280.63,637.417 2277.88,634.72C2275.13,632.024 2271.54,630.676 2267.1,630.676C2262.66,630.676 2258.53,631.127 2254.71,632.024C2250.89,632.924 2247.83,633.851 2245.53,634.804C2243.23,635.76 2239.32,637.585 2233.82,640.281L2233.82,709.2L2221.35,709.2Z" style="fill:rgb(185,30,79);fill-rule:nonzero;"/>
        <path d="M2322.11,687.126C2322.11,694.203 2325.43,697.742 2332.06,697.742C2336.1,697.742 2341.24,697.012 2347.47,695.55C2353.71,694.092 2358.96,692.686 2363.23,691.338L2369.46,689.148L2369.46,665.051L2332.06,667.748C2328.69,668.085 2326.18,669.264 2324.56,671.286C2322.93,673.308 2322.11,675.781 2322.11,678.7L2322.11,687.126ZM2312.51,623.093C2324.64,619.723 2339.36,618.039 2356.66,618.039C2363.96,618.039 2370,620.173 2374.77,624.441C2379.54,628.712 2381.93,635.226 2381.93,643.988L2381.93,709.2L2372.67,709.2L2369.46,698.416L2366.94,699.595C2352.33,706.672 2340.71,710.211 2332.06,710.211C2325.65,710.211 2320.32,708.247 2316.05,704.313C2311.78,700.382 2309.64,694.935 2309.64,687.968L2309.64,677.689C2309.64,670.838 2311.64,665.388 2315.63,661.344C2319.61,657.3 2325.09,655.278 2332.06,655.278L2369.46,655.278C2369.57,651.571 2369.63,648.791 2369.63,646.937C2369.63,645.084 2369.57,644.101 2369.46,643.988C2369.46,634.778 2364.63,630.17 2354.97,630.17C2345.31,630.17 2331.16,630.844 2312.51,632.193L2312.51,623.093Z" style="fill:rgb(185,30,79);fill-rule:nonzero;"/>
        <path d="M2400.47,709.2L2400.47,619.723L2409.23,619.723L2412.94,631.013C2421.47,625.847 2426.87,622.899 2429.11,622.167C2431.36,621.437 2433.38,620.793 2435.18,620.229C2438.55,619.217 2442.87,618.712 2448.16,618.712C2453.43,618.712 2456.97,619.163 2458.77,620.06L2458.77,632.361C2456.08,631.687 2452.25,631.35 2447.31,631.35C2442.37,631.35 2437.96,631.8 2434.09,632.698C2430.21,633.598 2427.12,634.551 2424.82,635.563C2422.51,636.574 2418.55,638.427 2412.94,641.124L2412.94,709.2L2400.47,709.2Z" style="fill:rgb(185,30,79);fill-rule:nonzero;"/>
        <path d="M2479.67,658.985L2517.41,658.985C2524.49,658.985 2528.03,656.234 2528.03,650.728C2528.03,642.08 2526.76,636.716 2524.24,634.636C2521.71,632.559 2515.78,631.519 2506.46,631.519C2494.89,631.519 2487.98,632.698 2485.73,635.057C2482.59,638.427 2480.79,642.134 2480.34,646.178C2479.89,650.223 2479.67,654.494 2479.67,658.985ZM2467.2,664.041C2467.2,654.157 2467.87,646.208 2469.22,640.197C2470.57,634.188 2473.01,629.639 2476.55,626.547C2480.09,623.46 2484.02,621.437 2488.34,620.482C2492.67,619.529 2498.29,619.049 2505.2,619.049C2512.1,619.049 2517.3,619.331 2520.78,619.892C2524.26,620.456 2527.69,621.746 2531.06,623.767C2534.43,625.79 2536.85,628.991 2538.31,633.373C2539.77,637.753 2540.5,643.541 2540.5,650.728C2540.5,664.435 2532.8,671.286 2517.41,671.286L2479.67,671.286C2479.67,681.733 2480.85,688.726 2483.21,692.265C2485.56,695.803 2490.06,697.573 2496.69,697.573C2517.13,697.573 2531.17,697.012 2538.81,695.888L2538.81,705.324C2527.69,708.47 2513.65,710.043 2496.69,710.043C2485.34,710.043 2477.59,706.786 2473.43,700.269C2469.28,693.755 2467.2,681.678 2467.2,664.041Z" style="fill:rgb(185,30,79);fill-rule:nonzero;"/>
        <path d="M2556.5,705.324L2556.5,695.719C2556.5,692.913 2557.85,691.506 2560.55,691.506L2569.48,691.506C2572.29,691.506 2573.69,692.913 2573.69,695.719L2573.69,705.324C2573.69,707.91 2572.29,709.2 2569.48,709.2L2560.55,709.2C2557.85,709.2 2556.5,707.91 2556.5,705.324Z" style="fill:rgb(185,30,79);fill-rule:nonzero;"/>
        <path d="M690.021,444.041C690.021,490.043 652.729,527.335 606.727,527.335C560.725,527.335 523.432,490.043 523.432,444.041C523.432,398.039 560.725,360.747 606.727,360.747C652.729,360.747 690.021,398.039 690.021,444.041Z" style="fill:url(#_Linear1);"/>
        <path d="M606.302,0.232L0,0.232C0,40.614 10.801,78.47 29.665,111.078L607.152,111.078C790.808,111.078 939.69,259.961 939.69,443.616C939.69,627.272 790.808,776.154 607.152,776.154C423.496,776.154 274.614,627.272 274.614,443.616C274.614,415.002 278.245,387.239 285.044,360.747L170.66,360.747C165.583,387.593 162.917,415.293 162.917,443.616C162.917,688.491 361.427,887.001 606.302,887.001C851.176,887.001 1049.69,688.491 1049.69,443.616C1049.69,198.742 851.176,0.232 606.302,0.232Z" style="fill:url(#_Linear2);"/>
        <path d="M607.152,111.078L29.665,111.078C67.997,177.34 140.486,221.924 222.542,221.924L606.727,221.924L606.727,221.929C606.869,221.929 607.01,221.924 607.152,221.924C729.589,221.924 828.844,321.179 828.844,443.616C828.844,566.053 729.589,665.308 607.152,665.308C484.715,665.308 385.46,566.053 385.46,443.616C385.46,414.316 391.157,386.35 401.483,360.747L285.044,360.747C278.245,387.239 274.614,415.002 274.614,443.616C274.614,627.272 423.496,776.154 607.152,776.154C790.808,776.154 939.69,627.272 939.69,443.616C939.69,259.961 790.808,111.078 607.152,111.078Z" style="fill:url(#_Linear3);"/>
    </g>
    <defs>
        <linearGradient id="_Linear1" x1="0" y1="0" x2="1" y2="0" gradientUnits="userSpaceOnUse" gradientTransform="matrix(142.796,142.796,-142.796,142.796,547.829,385.143)"><stop offset="0" style="stop-color:rgb(247,146,29);stop-opacity:1"/><stop offset="0.8" style="stop-color:rgb(223,31,43);stop-opacity:1"/><stop offset="1" style="stop-color:rgb(223,31,43);stop-opacity:1"/></linearGradient>
        <linearGradient id="_Linear2" x1="0" y1="0" x2="1" y2="0" gradientUnits="userSpaceOnUse" gradientTransform="matrix(5.42989e-15,886.768,-886.768,5.42989e-15,524.843,0.232)"><stop offset="0" style="stop-color:rgb(247,146,29);stop-opacity:1"/><stop offset="0.5" style="stop-color:rgb(223,31,43);stop-opacity:1"/><stop offset="1" style="stop-color:rgb(116,46,146);stop-opacity:1"/></linearGradient>
        <linearGradient id="_Linear3" x1="0" y1="0" x2="1" y2="0" gradientUnits="userSpaceOnUse" gradientTransform="matrix(1048.76,605.501,-605.501,1048.76,30.044,110.423)"><stop offset="0" style="stop-color:rgb(247,146,29);stop-opacity:1"/><stop offset="0.2" style="stop-color:rgb(247,142,31);stop-opacity:1"/><stop offset="0.5" style="stop-color:rgb(223,41,43);stop-opacity:1"/><stop offset="1" style="stop-color:rgb(116,46,146);stop-opacity:1"/></linearGradient>
    </defs>
</svg>